%
M48
M72
T01C0.0118
T02C0.0400
%
T01
X26683Y13193
X26383Y12893
X26083Y13193
X25783Y12893
X25483Y13193
X25183Y12893
X24883Y13193
X24583Y12893
X24283Y13193
X23983Y12893
X23683Y13193
X23383Y12893
X23083Y13193
X22783Y12893
X22483Y13193
X22183Y12893
X21883Y13193
X21583Y12893
X20983Y8993
X19683Y12893
X19383Y13193
X19083Y12893
X18783Y13193
X18483Y12893
X18183Y13193
X17883Y12893
X17583Y13193
X17283Y12893
X16983Y13193
X16683Y12893
X16383Y13193
X16083Y12893
X15783Y13193
X15483Y12893
X15083Y13193
X14783Y12893
X14483Y13193
T02
X40183Y4393
X39183Y4393
X38183Y4393
X37183Y4393
X36183Y4393
X35183Y4393
X34183Y4393
X33183Y4393
X32183Y4393
X31183Y4393
X30183Y4393
X29183Y4393
X28183Y4393
X27183Y4393
X26183Y4393
X25183Y4393
X24183Y4393
X23183Y4393
X22183Y4393
X21183Y4393
X20183Y4393
X19183Y4393
X18183Y4393
X17183Y4393
X16183Y4393
X15183Y4393
X14183Y4393
X13183Y4393
X12183Y4393
X11183Y4393
X10183Y4393
X9183Y4393
X8183Y4393
X7183Y4393
X6183Y4393
X5183Y4393
X4183Y4393
X3183Y4393
X2183Y4393
X1183Y4393
X40183Y3393
X39183Y3393
X38183Y3393
X37183Y3393
X36183Y3393
X35183Y3393
X34183Y3393
X33183Y3393
X32183Y3393
X31183Y3393
X30183Y3393
X29183Y3393
X28183Y3393
X27183Y3393
X26183Y3393
X25183Y3393
X24183Y3393
X23183Y3393
X22183Y3393
X21183Y3393
X20183Y3393
X19183Y3393
X18183Y3393
X17183Y3393
X16183Y3393
X15183Y3393
X14183Y3393
X13183Y3393
X12183Y3393
X11183Y3393
X10183Y3393
X9183Y3393
X8183Y3393
X7183Y3393
X6183Y3393
X5183Y3393
X4183Y3393
X3183Y3393
X2183Y3393
X1183Y3393
M30
