G75*
G70*
%OFA0B0*%
%FSLAX24Y24*%
%IPPOS*%
%LPD*%
%AMOC8*
5,1,8,0,0,1.08239X$1,22.5*
%
%ADD10C,0.0000*%
D10*
X000183Y002893D02*
X000183Y008750D01*
X000182Y008750D02*
X000188Y008989D01*
X000205Y009227D01*
X000233Y009464D01*
X000273Y009699D01*
X000323Y009932D01*
X000385Y010163D01*
X000458Y010390D01*
X000541Y010614D01*
X000635Y010833D01*
X000739Y011048D01*
X000854Y011257D01*
X000978Y011461D01*
X001112Y011658D01*
X001255Y011849D01*
X001407Y012033D01*
X001567Y012210D01*
X001736Y012379D01*
X001913Y012539D01*
X002097Y012691D01*
X002288Y012834D01*
X002485Y012968D01*
X002689Y013092D01*
X002898Y013207D01*
X003113Y013311D01*
X003332Y013405D01*
X003556Y013488D01*
X003783Y013561D01*
X004014Y013623D01*
X004247Y013673D01*
X004482Y013713D01*
X004719Y013741D01*
X004957Y013758D01*
X005196Y013764D01*
X005196Y013763D02*
X035171Y013763D01*
X035171Y013764D02*
X035457Y013757D01*
X035742Y013737D01*
X036025Y013703D01*
X036307Y013655D01*
X036586Y013595D01*
X036863Y013521D01*
X037135Y013434D01*
X037402Y013334D01*
X037665Y013221D01*
X037922Y013097D01*
X038173Y012960D01*
X038417Y012811D01*
X038654Y012651D01*
X038882Y012479D01*
X039103Y012298D01*
X039314Y012105D01*
X039516Y011903D01*
X039709Y011692D01*
X039890Y011471D01*
X040062Y011243D01*
X040222Y011006D01*
X040371Y010762D01*
X040508Y010511D01*
X040632Y010254D01*
X040745Y009991D01*
X040845Y009724D01*
X040932Y009452D01*
X041006Y009175D01*
X041066Y008896D01*
X041114Y008614D01*
X041148Y008331D01*
X041168Y008046D01*
X041175Y007760D01*
X041175Y002893D01*
X000183Y002893D01*
M02*
