G75*
G70*
%OFA0B0*%
%FSLAX24Y24*%
%IPPOS*%
%LPD*%
%AMOC8*
5,1,8,0,0,1.08239X$1,22.5*
%
%ADD10C,0.0000*%
%ADD11R,0.0186X0.0552*%
%ADD12R,0.0552X0.0186*%
%ADD13C,0.0680*%
%ADD14C,0.0358*%
D10*
X000183Y002893D02*
X000183Y008750D01*
X000182Y008750D02*
X000188Y008989D01*
X000205Y009227D01*
X000233Y009464D01*
X000273Y009699D01*
X000323Y009932D01*
X000385Y010163D01*
X000458Y010390D01*
X000541Y010614D01*
X000635Y010833D01*
X000739Y011048D01*
X000854Y011257D01*
X000978Y011461D01*
X001112Y011658D01*
X001255Y011849D01*
X001407Y012033D01*
X001567Y012210D01*
X001736Y012379D01*
X001913Y012539D01*
X002097Y012691D01*
X002288Y012834D01*
X002485Y012968D01*
X002689Y013092D01*
X002898Y013207D01*
X003113Y013311D01*
X003332Y013405D01*
X003556Y013488D01*
X003783Y013561D01*
X004014Y013623D01*
X004247Y013673D01*
X004482Y013713D01*
X004719Y013741D01*
X004957Y013758D01*
X005196Y013764D01*
X005196Y013763D02*
X035171Y013763D01*
X035171Y013764D02*
X035457Y013757D01*
X035742Y013737D01*
X036025Y013703D01*
X036307Y013655D01*
X036586Y013595D01*
X036863Y013521D01*
X037135Y013434D01*
X037402Y013334D01*
X037665Y013221D01*
X037922Y013097D01*
X038173Y012960D01*
X038417Y012811D01*
X038654Y012651D01*
X038882Y012479D01*
X039103Y012298D01*
X039314Y012105D01*
X039516Y011903D01*
X039709Y011692D01*
X039890Y011471D01*
X040062Y011243D01*
X040222Y011006D01*
X040371Y010762D01*
X040508Y010511D01*
X040632Y010254D01*
X040745Y009991D01*
X040845Y009724D01*
X040932Y009452D01*
X041006Y009175D01*
X041066Y008896D01*
X041114Y008614D01*
X041148Y008331D01*
X041168Y008046D01*
X041175Y007760D01*
X041175Y002893D01*
X000183Y002893D01*
D11*
G36*
X021425Y005960D02*
X021294Y005829D01*
X020905Y006218D01*
X021036Y006349D01*
X021425Y005960D01*
G37*
G36*
X021564Y006100D02*
X021433Y005969D01*
X021044Y006358D01*
X021175Y006489D01*
X021564Y006100D01*
G37*
G36*
X021703Y006239D02*
X021572Y006108D01*
X021183Y006497D01*
X021314Y006628D01*
X021703Y006239D01*
G37*
G36*
X021843Y006378D02*
X021712Y006247D01*
X021323Y006636D01*
X021454Y006767D01*
X021843Y006378D01*
G37*
G36*
X021982Y006517D02*
X021851Y006386D01*
X021462Y006775D01*
X021593Y006906D01*
X021982Y006517D01*
G37*
G36*
X022121Y006656D02*
X021990Y006525D01*
X021601Y006914D01*
X021732Y007045D01*
X022121Y006656D01*
G37*
G36*
X022260Y006796D02*
X022129Y006665D01*
X021740Y007054D01*
X021871Y007185D01*
X022260Y006796D01*
G37*
G36*
X022399Y006935D02*
X022268Y006804D01*
X021879Y007193D01*
X022010Y007324D01*
X022399Y006935D01*
G37*
G36*
X022539Y007074D02*
X022408Y006943D01*
X022019Y007332D01*
X022150Y007463D01*
X022539Y007074D01*
G37*
G36*
X022678Y007213D02*
X022547Y007082D01*
X022158Y007471D01*
X022289Y007602D01*
X022678Y007213D01*
G37*
G36*
X022817Y007352D02*
X022686Y007221D01*
X022297Y007610D01*
X022428Y007741D01*
X022817Y007352D01*
G37*
G36*
X022956Y007492D02*
X022825Y007361D01*
X022436Y007750D01*
X022567Y007881D01*
X022956Y007492D01*
G37*
G36*
X023095Y007631D02*
X022964Y007500D01*
X022575Y007889D01*
X022706Y008020D01*
X023095Y007631D01*
G37*
G36*
X023235Y007770D02*
X023104Y007639D01*
X022715Y008028D01*
X022846Y008159D01*
X023235Y007770D01*
G37*
G36*
X023374Y007909D02*
X023243Y007778D01*
X022854Y008167D01*
X022985Y008298D01*
X023374Y007909D01*
G37*
G36*
X023513Y008048D02*
X023382Y007917D01*
X022993Y008306D01*
X023124Y008437D01*
X023513Y008048D01*
G37*
G36*
X023652Y008188D02*
X023521Y008057D01*
X023132Y008446D01*
X023263Y008577D01*
X023652Y008188D01*
G37*
G36*
X023791Y008327D02*
X023660Y008196D01*
X023271Y008585D01*
X023402Y008716D01*
X023791Y008327D01*
G37*
G36*
X023930Y008466D02*
X023799Y008335D01*
X023410Y008724D01*
X023541Y008855D01*
X023930Y008466D01*
G37*
G36*
X024070Y008605D02*
X023939Y008474D01*
X023550Y008863D01*
X023681Y008994D01*
X024070Y008605D01*
G37*
G36*
X018418Y010359D02*
X018287Y010228D01*
X017898Y010617D01*
X018029Y010748D01*
X018418Y010359D01*
G37*
G36*
X018558Y010498D02*
X018427Y010367D01*
X018038Y010756D01*
X018169Y010887D01*
X018558Y010498D01*
G37*
G36*
X018697Y010637D02*
X018566Y010506D01*
X018177Y010895D01*
X018308Y011026D01*
X018697Y010637D01*
G37*
G36*
X018836Y010777D02*
X018705Y010646D01*
X018316Y011035D01*
X018447Y011166D01*
X018836Y010777D01*
G37*
G36*
X018975Y010916D02*
X018844Y010785D01*
X018455Y011174D01*
X018586Y011305D01*
X018975Y010916D01*
G37*
G36*
X019114Y011055D02*
X018983Y010924D01*
X018594Y011313D01*
X018725Y011444D01*
X019114Y011055D01*
G37*
G36*
X019254Y011194D02*
X019123Y011063D01*
X018734Y011452D01*
X018865Y011583D01*
X019254Y011194D01*
G37*
G36*
X019393Y011333D02*
X019262Y011202D01*
X018873Y011591D01*
X019004Y011722D01*
X019393Y011333D01*
G37*
G36*
X019532Y011473D02*
X019401Y011342D01*
X019012Y011731D01*
X019143Y011862D01*
X019532Y011473D01*
G37*
G36*
X019671Y011612D02*
X019540Y011481D01*
X019151Y011870D01*
X019282Y012001D01*
X019671Y011612D01*
G37*
G36*
X019810Y011751D02*
X019679Y011620D01*
X019290Y012009D01*
X019421Y012140D01*
X019810Y011751D01*
G37*
G36*
X019950Y011890D02*
X019819Y011759D01*
X019430Y012148D01*
X019561Y012279D01*
X019950Y011890D01*
G37*
G36*
X020089Y012029D02*
X019958Y011898D01*
X019569Y012287D01*
X019700Y012418D01*
X020089Y012029D01*
G37*
G36*
X020228Y012169D02*
X020097Y012038D01*
X019708Y012427D01*
X019839Y012558D01*
X020228Y012169D01*
G37*
G36*
X020367Y012308D02*
X020236Y012177D01*
X019847Y012566D01*
X019978Y012697D01*
X020367Y012308D01*
G37*
G36*
X018279Y010220D02*
X018148Y010089D01*
X017759Y010478D01*
X017890Y010609D01*
X018279Y010220D01*
G37*
G36*
X018140Y010081D02*
X018009Y009950D01*
X017620Y010339D01*
X017751Y010470D01*
X018140Y010081D01*
G37*
G36*
X018001Y009941D02*
X017870Y009810D01*
X017481Y010199D01*
X017612Y010330D01*
X018001Y009941D01*
G37*
G36*
X017862Y009802D02*
X017731Y009671D01*
X017342Y010060D01*
X017473Y010191D01*
X017862Y009802D01*
G37*
G36*
X017722Y009663D02*
X017591Y009532D01*
X017202Y009921D01*
X017333Y010052D01*
X017722Y009663D01*
G37*
D12*
G36*
X017722Y008863D02*
X017333Y008474D01*
X017202Y008605D01*
X017591Y008994D01*
X017722Y008863D01*
G37*
G36*
X017862Y008724D02*
X017473Y008335D01*
X017342Y008466D01*
X017731Y008855D01*
X017862Y008724D01*
G37*
G36*
X018001Y008585D02*
X017612Y008196D01*
X017481Y008327D01*
X017870Y008716D01*
X018001Y008585D01*
G37*
G36*
X018140Y008446D02*
X017751Y008057D01*
X017620Y008188D01*
X018009Y008577D01*
X018140Y008446D01*
G37*
G36*
X018279Y008306D02*
X017890Y007917D01*
X017759Y008048D01*
X018148Y008437D01*
X018279Y008306D01*
G37*
G36*
X018418Y008167D02*
X018029Y007778D01*
X017898Y007909D01*
X018287Y008298D01*
X018418Y008167D01*
G37*
G36*
X018558Y008028D02*
X018169Y007639D01*
X018038Y007770D01*
X018427Y008159D01*
X018558Y008028D01*
G37*
G36*
X018697Y007889D02*
X018308Y007500D01*
X018177Y007631D01*
X018566Y008020D01*
X018697Y007889D01*
G37*
G36*
X018836Y007750D02*
X018447Y007361D01*
X018316Y007492D01*
X018705Y007881D01*
X018836Y007750D01*
G37*
G36*
X018975Y007610D02*
X018586Y007221D01*
X018455Y007352D01*
X018844Y007741D01*
X018975Y007610D01*
G37*
G36*
X019114Y007471D02*
X018725Y007082D01*
X018594Y007213D01*
X018983Y007602D01*
X019114Y007471D01*
G37*
G36*
X019254Y007332D02*
X018865Y006943D01*
X018734Y007074D01*
X019123Y007463D01*
X019254Y007332D01*
G37*
G36*
X019393Y007193D02*
X019004Y006804D01*
X018873Y006935D01*
X019262Y007324D01*
X019393Y007193D01*
G37*
G36*
X019532Y007054D02*
X019143Y006665D01*
X019012Y006796D01*
X019401Y007185D01*
X019532Y007054D01*
G37*
G36*
X019671Y006914D02*
X019282Y006525D01*
X019151Y006656D01*
X019540Y007045D01*
X019671Y006914D01*
G37*
G36*
X019810Y006775D02*
X019421Y006386D01*
X019290Y006517D01*
X019679Y006906D01*
X019810Y006775D01*
G37*
G36*
X019950Y006636D02*
X019561Y006247D01*
X019430Y006378D01*
X019819Y006767D01*
X019950Y006636D01*
G37*
G36*
X020089Y006497D02*
X019700Y006108D01*
X019569Y006239D01*
X019958Y006628D01*
X020089Y006497D01*
G37*
G36*
X020228Y006358D02*
X019839Y005969D01*
X019708Y006100D01*
X020097Y006489D01*
X020228Y006358D01*
G37*
G36*
X020367Y006218D02*
X019978Y005829D01*
X019847Y005960D01*
X020236Y006349D01*
X020367Y006218D01*
G37*
G36*
X024070Y009921D02*
X023681Y009532D01*
X023550Y009663D01*
X023939Y010052D01*
X024070Y009921D01*
G37*
G36*
X023930Y010060D02*
X023541Y009671D01*
X023410Y009802D01*
X023799Y010191D01*
X023930Y010060D01*
G37*
G36*
X023791Y010199D02*
X023402Y009810D01*
X023271Y009941D01*
X023660Y010330D01*
X023791Y010199D01*
G37*
G36*
X023652Y010339D02*
X023263Y009950D01*
X023132Y010081D01*
X023521Y010470D01*
X023652Y010339D01*
G37*
G36*
X023513Y010478D02*
X023124Y010089D01*
X022993Y010220D01*
X023382Y010609D01*
X023513Y010478D01*
G37*
G36*
X023374Y010617D02*
X022985Y010228D01*
X022854Y010359D01*
X023243Y010748D01*
X023374Y010617D01*
G37*
G36*
X023235Y010756D02*
X022846Y010367D01*
X022715Y010498D01*
X023104Y010887D01*
X023235Y010756D01*
G37*
G36*
X023095Y010895D02*
X022706Y010506D01*
X022575Y010637D01*
X022964Y011026D01*
X023095Y010895D01*
G37*
G36*
X022956Y011035D02*
X022567Y010646D01*
X022436Y010777D01*
X022825Y011166D01*
X022956Y011035D01*
G37*
G36*
X022817Y011174D02*
X022428Y010785D01*
X022297Y010916D01*
X022686Y011305D01*
X022817Y011174D01*
G37*
G36*
X022678Y011313D02*
X022289Y010924D01*
X022158Y011055D01*
X022547Y011444D01*
X022678Y011313D01*
G37*
G36*
X022539Y011452D02*
X022150Y011063D01*
X022019Y011194D01*
X022408Y011583D01*
X022539Y011452D01*
G37*
G36*
X022399Y011591D02*
X022010Y011202D01*
X021879Y011333D01*
X022268Y011722D01*
X022399Y011591D01*
G37*
G36*
X022260Y011731D02*
X021871Y011342D01*
X021740Y011473D01*
X022129Y011862D01*
X022260Y011731D01*
G37*
G36*
X022121Y011870D02*
X021732Y011481D01*
X021601Y011612D01*
X021990Y012001D01*
X022121Y011870D01*
G37*
G36*
X021982Y012009D02*
X021593Y011620D01*
X021462Y011751D01*
X021851Y012140D01*
X021982Y012009D01*
G37*
G36*
X021843Y012148D02*
X021454Y011759D01*
X021323Y011890D01*
X021712Y012279D01*
X021843Y012148D01*
G37*
G36*
X021703Y012287D02*
X021314Y011898D01*
X021183Y012029D01*
X021572Y012418D01*
X021703Y012287D01*
G37*
G36*
X021564Y012427D02*
X021175Y012038D01*
X021044Y012169D01*
X021433Y012558D01*
X021564Y012427D01*
G37*
G36*
X021425Y012566D02*
X021036Y012177D01*
X020905Y012308D01*
X021294Y012697D01*
X021425Y012566D01*
G37*
D13*
X021183Y004393D03*
X022183Y004393D03*
X023183Y004393D03*
X024183Y004393D03*
X025183Y004393D03*
X026183Y004393D03*
X027183Y004393D03*
X028183Y004393D03*
X029183Y004393D03*
X030183Y004393D03*
X031183Y004393D03*
X032183Y004393D03*
X033183Y004393D03*
X034183Y004393D03*
X035183Y004393D03*
X036183Y004393D03*
X037183Y004393D03*
X038183Y004393D03*
X039183Y004393D03*
X040183Y004393D03*
X040183Y003393D03*
X039183Y003393D03*
X038183Y003393D03*
X037183Y003393D03*
X036183Y003393D03*
X035183Y003393D03*
X034183Y003393D03*
X033183Y003393D03*
X032183Y003393D03*
X031183Y003393D03*
X030183Y003393D03*
X029183Y003393D03*
X028183Y003393D03*
X027183Y003393D03*
X026183Y003393D03*
X025183Y003393D03*
X024183Y003393D03*
X023183Y003393D03*
X022183Y003393D03*
X021183Y003393D03*
X020183Y003393D03*
X019183Y003393D03*
X018183Y003393D03*
X017183Y003393D03*
X016183Y003393D03*
X015183Y003393D03*
X014183Y003393D03*
X013183Y003393D03*
X012183Y003393D03*
X011183Y003393D03*
X010183Y003393D03*
X009183Y003393D03*
X008183Y003393D03*
X007183Y003393D03*
X006183Y003393D03*
X005183Y003393D03*
X004183Y003393D03*
X003183Y003393D03*
X002183Y003393D03*
X001183Y003393D03*
X001183Y004393D03*
X002183Y004393D03*
X003183Y004393D03*
X004183Y004393D03*
X005183Y004393D03*
X006183Y004393D03*
X007183Y004393D03*
X008183Y004393D03*
X009183Y004393D03*
X010183Y004393D03*
X011183Y004393D03*
X012183Y004393D03*
X013183Y004393D03*
X014183Y004393D03*
X015183Y004393D03*
X016183Y004393D03*
X017183Y004393D03*
X018183Y004393D03*
X019183Y004393D03*
X020183Y004393D03*
D14*
X020983Y008993D03*
X021583Y012893D03*
X022183Y012893D03*
X022783Y012893D03*
X023383Y012893D03*
X023983Y012893D03*
X024583Y012893D03*
X025183Y012893D03*
X025783Y012893D03*
X026383Y012893D03*
X026683Y013193D03*
X026083Y013193D03*
X025483Y013193D03*
X024883Y013193D03*
X024283Y013193D03*
X023683Y013193D03*
X023083Y013193D03*
X022483Y013193D03*
X021883Y013193D03*
X019683Y012893D03*
X019083Y012893D03*
X018483Y012893D03*
X017883Y012893D03*
X017283Y012893D03*
X016683Y012893D03*
X016083Y012893D03*
X015483Y012893D03*
X014783Y012893D03*
X015083Y013193D03*
X015783Y013193D03*
X016383Y013193D03*
X016983Y013193D03*
X017583Y013193D03*
X018183Y013193D03*
X018783Y013193D03*
X019383Y013193D03*
X014483Y013193D03*
M02*
