G75*
G70*
%OFA0B0*%
%FSLAX24Y24*%
%IPPOS*%
%LPD*%
%AMOC8*
5,1,8,0,0,1.08239X$1,22.5*
%
%ADD10C,0.0000*%
%ADD11C,0.0040*%
%ADD12C,0.0600*%
%ADD13C,0.0100*%
%ADD14C,0.0278*%
D10*
X000183Y002893D02*
X000183Y008750D01*
X000182Y008750D02*
X000188Y008989D01*
X000205Y009227D01*
X000233Y009464D01*
X000273Y009699D01*
X000323Y009932D01*
X000385Y010163D01*
X000458Y010390D01*
X000541Y010614D01*
X000635Y010833D01*
X000739Y011048D01*
X000854Y011257D01*
X000978Y011461D01*
X001112Y011658D01*
X001255Y011849D01*
X001407Y012033D01*
X001567Y012210D01*
X001736Y012379D01*
X001913Y012539D01*
X002097Y012691D01*
X002288Y012834D01*
X002485Y012968D01*
X002689Y013092D01*
X002898Y013207D01*
X003113Y013311D01*
X003332Y013405D01*
X003556Y013488D01*
X003783Y013561D01*
X004014Y013623D01*
X004247Y013673D01*
X004482Y013713D01*
X004719Y013741D01*
X004957Y013758D01*
X005196Y013764D01*
X005196Y013763D02*
X035171Y013763D01*
X035171Y013764D02*
X035457Y013757D01*
X035742Y013737D01*
X036025Y013703D01*
X036307Y013655D01*
X036586Y013595D01*
X036863Y013521D01*
X037135Y013434D01*
X037402Y013334D01*
X037665Y013221D01*
X037922Y013097D01*
X038173Y012960D01*
X038417Y012811D01*
X038654Y012651D01*
X038882Y012479D01*
X039103Y012298D01*
X039314Y012105D01*
X039516Y011903D01*
X039709Y011692D01*
X039890Y011471D01*
X040062Y011243D01*
X040222Y011006D01*
X040371Y010762D01*
X040508Y010511D01*
X040632Y010254D01*
X040745Y009991D01*
X040845Y009724D01*
X040932Y009452D01*
X041006Y009175D01*
X041066Y008896D01*
X041114Y008614D01*
X041148Y008331D01*
X041168Y008046D01*
X041175Y007760D01*
X041175Y002893D01*
X000183Y002893D01*
D11*
X013107Y010961D02*
X013194Y010874D01*
X013368Y010874D01*
X013454Y010961D01*
X013454Y011308D01*
X013368Y011394D01*
X013194Y011394D01*
X013107Y011308D01*
X013107Y010961D01*
X013797Y010874D02*
X013797Y011394D01*
X013970Y011394D02*
X013623Y011394D01*
X014139Y011394D02*
X014139Y010874D01*
X014486Y010874D02*
X014486Y011394D01*
X014654Y011394D02*
X014654Y010874D01*
X015001Y010874D02*
X015001Y011394D01*
X015001Y011134D02*
X014654Y011134D01*
X014486Y011134D02*
X014139Y011134D01*
D12*
X014183Y004393D03*
X015183Y004393D03*
X016183Y004393D03*
X017183Y004393D03*
X018183Y004393D03*
X019183Y004393D03*
X020183Y004393D03*
X021183Y004393D03*
X022183Y004393D03*
X023183Y004393D03*
X024183Y004393D03*
X025183Y004393D03*
X026183Y004393D03*
X027183Y004393D03*
X028183Y004393D03*
X029183Y004393D03*
X030183Y004393D03*
X031183Y004393D03*
X032183Y004393D03*
X033183Y004393D03*
X034183Y004393D03*
X035183Y004393D03*
X036183Y004393D03*
X037183Y004393D03*
X038183Y004393D03*
X039183Y004393D03*
X040183Y004393D03*
X040183Y003393D03*
X039183Y003393D03*
X038183Y003393D03*
X037183Y003393D03*
X036183Y003393D03*
X035183Y003393D03*
X034183Y003393D03*
X033183Y003393D03*
X032183Y003393D03*
X031183Y003393D03*
X030183Y003393D03*
X029183Y003393D03*
X028183Y003393D03*
X027183Y003393D03*
X026183Y003393D03*
X025183Y003393D03*
X024183Y003393D03*
X023183Y003393D03*
X022183Y003393D03*
X021183Y003393D03*
X020183Y003393D03*
X019183Y003393D03*
X018183Y003393D03*
X017183Y003393D03*
X016183Y003393D03*
X015183Y003393D03*
X014183Y003393D03*
X013183Y003393D03*
X012183Y003393D03*
X011183Y003393D03*
X010183Y003393D03*
X009183Y003393D03*
X008183Y003393D03*
X007183Y003393D03*
X006183Y003393D03*
X005183Y003393D03*
X004183Y003393D03*
X003183Y003393D03*
X002183Y003393D03*
X001183Y003393D03*
X001183Y004393D03*
X002183Y004393D03*
X003183Y004393D03*
X004183Y004393D03*
X005183Y004393D03*
X006183Y004393D03*
X007183Y004393D03*
X008183Y004393D03*
X009183Y004393D03*
X010183Y004393D03*
X011183Y004393D03*
X012183Y004393D03*
X013183Y004393D03*
D13*
X013423Y003984D02*
X013463Y003984D01*
X013322Y003844D01*
X013276Y003863D01*
X013089Y003863D01*
X012916Y003792D01*
X012903Y003778D01*
X012903Y004009D01*
X012916Y003995D01*
X013089Y003923D01*
X013276Y003923D01*
X013449Y003995D01*
X013463Y004009D01*
X013463Y003984D01*
X013364Y003886D02*
X012903Y003886D01*
X012903Y003984D02*
X012942Y003984D01*
X012463Y003984D02*
X012423Y003984D01*
X012449Y003995D02*
X012463Y004009D01*
X012463Y003884D01*
X012393Y003815D01*
X012276Y003863D01*
X012089Y003863D01*
X011916Y003792D01*
X011784Y003660D01*
X011713Y003487D01*
X011713Y003343D01*
X011653Y003343D01*
X011653Y003487D01*
X011634Y003533D01*
X011903Y003802D01*
X011903Y004009D01*
X011916Y003995D01*
X012089Y003923D01*
X012276Y003923D01*
X012449Y003995D01*
X012463Y003886D02*
X011903Y003886D01*
X011903Y003984D02*
X011942Y003984D01*
X011683Y003893D02*
X011183Y003393D01*
X011653Y003393D02*
X011713Y003393D01*
X011715Y003492D02*
X011651Y003492D01*
X011691Y003590D02*
X011756Y003590D01*
X011789Y003689D02*
X011814Y003689D01*
X011888Y003787D02*
X011912Y003787D01*
X011683Y003893D02*
X011683Y004693D01*
X012583Y005593D01*
X015183Y005593D01*
X017283Y007693D01*
X017283Y012893D01*
X017083Y012693D02*
X016983Y012793D01*
X016983Y013193D01*
X017267Y013313D02*
X017298Y013313D01*
X017283Y013277D01*
X017267Y013313D01*
X017583Y013193D02*
X017583Y012593D01*
X018283Y011893D01*
X018283Y006093D01*
X018083Y005893D01*
X015783Y005893D01*
X015283Y005393D01*
X013383Y005393D01*
X012683Y004693D01*
X012683Y003793D01*
X012283Y003393D01*
X012183Y003393D01*
X012653Y003393D02*
X012713Y003393D01*
X012713Y003343D02*
X012653Y003343D01*
X012653Y003452D01*
X012731Y003530D01*
X012713Y003487D01*
X012713Y003343D01*
X012715Y003492D02*
X012692Y003492D01*
X013183Y003393D02*
X013683Y003893D01*
X013683Y004793D01*
X014083Y005193D01*
X015383Y005193D01*
X015883Y005693D01*
X018183Y005693D01*
X018483Y005993D01*
X018483Y011993D01*
X017883Y012593D01*
X017883Y012893D01*
X018483Y012893D02*
X018483Y012593D01*
X018883Y012193D01*
X018883Y005793D01*
X018383Y005293D01*
X016083Y005293D01*
X015683Y004893D01*
X015683Y003693D01*
X015383Y003393D01*
X015183Y003393D01*
X014713Y003393D02*
X014653Y003393D01*
X014653Y003343D02*
X014653Y003487D01*
X014634Y003533D01*
X014903Y003802D01*
X014903Y004009D01*
X014916Y003995D01*
X015089Y003923D01*
X015276Y003923D01*
X015449Y003995D01*
X015463Y004009D01*
X015463Y003784D01*
X015459Y003781D01*
X015449Y003792D01*
X015276Y003863D01*
X015089Y003863D01*
X014916Y003792D01*
X014784Y003660D01*
X014713Y003487D01*
X014713Y003343D01*
X014653Y003343D01*
X014651Y003492D02*
X014715Y003492D01*
X014691Y003590D02*
X014756Y003590D01*
X014789Y003689D02*
X014814Y003689D01*
X014888Y003787D02*
X014912Y003787D01*
X014903Y003886D02*
X015463Y003886D01*
X015463Y003984D02*
X015423Y003984D01*
X015903Y003984D02*
X015942Y003984D01*
X015916Y003995D02*
X015903Y004009D01*
X015903Y003778D01*
X015916Y003792D01*
X016089Y003863D01*
X016276Y003863D01*
X016393Y003815D01*
X016463Y003884D01*
X016463Y004009D01*
X016449Y003995D01*
X016276Y003923D01*
X016089Y003923D01*
X015916Y003995D01*
X015903Y003886D02*
X016463Y003886D01*
X016463Y003984D02*
X016423Y003984D01*
X016903Y003984D02*
X016942Y003984D01*
X016916Y003995D02*
X016903Y004009D01*
X016903Y003778D01*
X016916Y003792D01*
X017089Y003863D01*
X017276Y003863D01*
X017449Y003792D01*
X017463Y003778D01*
X017463Y004009D01*
X017449Y003995D01*
X017276Y003923D01*
X017089Y003923D01*
X016916Y003995D01*
X016903Y003886D02*
X017463Y003886D01*
X017463Y003984D02*
X017423Y003984D01*
X017903Y003984D02*
X017942Y003984D01*
X017916Y003995D02*
X017903Y004009D01*
X017903Y003778D01*
X017916Y003792D01*
X018089Y003863D01*
X018276Y003863D01*
X018322Y003844D01*
X018463Y003984D01*
X018423Y003984D01*
X018449Y003995D02*
X018463Y004009D01*
X018463Y003984D01*
X018449Y003995D02*
X018276Y003923D01*
X018089Y003923D01*
X017916Y003995D01*
X017903Y003886D02*
X018364Y003886D01*
X018683Y003893D02*
X018183Y003393D01*
X018653Y003393D02*
X018713Y003393D01*
X018713Y003343D02*
X018653Y003343D01*
X018653Y003487D01*
X018634Y003533D01*
X018903Y003802D01*
X018903Y004009D01*
X018916Y003995D01*
X019089Y003923D01*
X019276Y003923D01*
X019449Y003995D01*
X019463Y004009D01*
X019463Y003984D01*
X019423Y003984D01*
X019463Y003984D02*
X019322Y003844D01*
X019276Y003863D01*
X019089Y003863D01*
X018916Y003792D01*
X018784Y003660D01*
X018713Y003487D01*
X018713Y003343D01*
X018715Y003492D02*
X018651Y003492D01*
X018691Y003590D02*
X018756Y003590D01*
X018789Y003689D02*
X018814Y003689D01*
X018888Y003787D02*
X018912Y003787D01*
X018903Y003886D02*
X019364Y003886D01*
X019683Y003893D02*
X019183Y003393D01*
X019653Y003393D02*
X019713Y003393D01*
X019713Y003343D02*
X019653Y003343D01*
X019653Y003487D01*
X019634Y003533D01*
X019903Y003802D01*
X019903Y003984D01*
X019942Y003984D01*
X019916Y003995D02*
X020089Y003923D01*
X020276Y003923D01*
X020449Y003995D01*
X020463Y004009D01*
X020463Y003802D01*
X020592Y003673D01*
X020732Y003533D01*
X020713Y003487D01*
X020713Y003343D01*
X020653Y003343D01*
X020653Y003487D01*
X020581Y003660D01*
X020449Y003792D01*
X020276Y003863D01*
X020089Y003863D01*
X019916Y003792D01*
X019784Y003660D01*
X019713Y003487D01*
X019713Y003343D01*
X019715Y003492D02*
X019651Y003492D01*
X019691Y003590D02*
X019756Y003590D01*
X019789Y003689D02*
X019814Y003689D01*
X019888Y003787D02*
X019912Y003787D01*
X019903Y003886D02*
X020463Y003886D01*
X020463Y003984D02*
X020423Y003984D01*
X020683Y003893D02*
X020683Y004593D01*
X021483Y005393D01*
X021483Y008293D01*
X020983Y008793D01*
X020983Y008993D01*
X021270Y009106D02*
X021463Y009106D01*
X021463Y009008D02*
X021292Y009008D01*
X021292Y009055D02*
X021245Y009168D01*
X021158Y009255D01*
X021044Y009302D01*
X020921Y009302D01*
X020808Y009255D01*
X020721Y009168D01*
X020674Y009055D01*
X020674Y008932D01*
X020721Y008818D01*
X020763Y008776D01*
X020763Y008702D01*
X021263Y008202D01*
X021263Y005484D01*
X020592Y004813D01*
X020509Y004731D01*
X020449Y004792D01*
X020276Y004863D01*
X020089Y004863D01*
X019916Y004792D01*
X019903Y004778D01*
X019903Y012676D01*
X019945Y012718D01*
X019992Y012832D01*
X019992Y012955D01*
X019945Y013068D01*
X019858Y013155D01*
X019744Y013202D01*
X019692Y013202D01*
X019692Y013255D01*
X019667Y013313D01*
X021598Y013313D01*
X021574Y013255D01*
X021574Y013202D01*
X021521Y013202D01*
X021408Y013155D01*
X021321Y013068D01*
X021274Y012955D01*
X021274Y012832D01*
X021321Y012718D01*
X021408Y012631D01*
X021463Y012608D01*
X021463Y008624D01*
X021252Y008835D01*
X021292Y008932D01*
X021292Y009055D01*
X021282Y008909D02*
X021463Y008909D01*
X021463Y008811D02*
X021276Y008811D01*
X021375Y008712D02*
X021463Y008712D01*
X020950Y008515D02*
X019903Y008515D01*
X019903Y008417D02*
X021048Y008417D01*
X021147Y008318D02*
X019903Y008318D01*
X019903Y008220D02*
X021245Y008220D01*
X021263Y008121D02*
X019903Y008121D01*
X019903Y008023D02*
X021263Y008023D01*
X021263Y007924D02*
X019903Y007924D01*
X019903Y007826D02*
X021263Y007826D01*
X021263Y007727D02*
X019903Y007727D01*
X019903Y007629D02*
X021263Y007629D01*
X021263Y007530D02*
X019903Y007530D01*
X019903Y007432D02*
X021263Y007432D01*
X021263Y007333D02*
X019903Y007333D01*
X019903Y007235D02*
X021263Y007235D01*
X021263Y007136D02*
X019903Y007136D01*
X019903Y007038D02*
X021263Y007038D01*
X021263Y006939D02*
X019903Y006939D01*
X019903Y006841D02*
X021263Y006841D01*
X021263Y006742D02*
X019903Y006742D01*
X019903Y006644D02*
X021263Y006644D01*
X021263Y006545D02*
X019903Y006545D01*
X019903Y006447D02*
X021263Y006447D01*
X021263Y006348D02*
X019903Y006348D01*
X019903Y006250D02*
X021263Y006250D01*
X021263Y006151D02*
X019903Y006151D01*
X019903Y006053D02*
X021263Y006053D01*
X021263Y005954D02*
X019903Y005954D01*
X019903Y005856D02*
X021263Y005856D01*
X021263Y005757D02*
X019903Y005757D01*
X019903Y005659D02*
X021263Y005659D01*
X021263Y005560D02*
X019903Y005560D01*
X019903Y005462D02*
X021240Y005462D01*
X021142Y005363D02*
X019903Y005363D01*
X019903Y005265D02*
X021043Y005265D01*
X020945Y005166D02*
X019903Y005166D01*
X019903Y005068D02*
X020846Y005068D01*
X020748Y004969D02*
X019903Y004969D01*
X019903Y004871D02*
X020649Y004871D01*
X020551Y004772D02*
X020468Y004772D01*
X021264Y004863D02*
X021463Y005062D01*
X021463Y004778D01*
X021449Y004792D01*
X021276Y004863D01*
X021264Y004863D01*
X021271Y004871D02*
X021463Y004871D01*
X021463Y004969D02*
X021370Y004969D01*
X021903Y004969D02*
X022096Y004969D01*
X022089Y004863D02*
X022202Y004863D01*
X021903Y005162D01*
X021903Y004778D01*
X021916Y004792D01*
X022089Y004863D01*
X022194Y004871D02*
X021903Y004871D01*
X021903Y005068D02*
X021997Y005068D01*
X022083Y005593D02*
X022683Y004993D01*
X023483Y004993D01*
X023683Y004793D01*
X023683Y003893D01*
X024183Y003393D01*
X024653Y003393D02*
X024713Y003393D01*
X024713Y003343D02*
X024653Y003343D01*
X024653Y003487D01*
X024581Y003660D01*
X024449Y003792D01*
X024276Y003863D01*
X024089Y003863D01*
X024043Y003844D01*
X023903Y003984D01*
X023942Y003984D01*
X023916Y003995D02*
X023903Y004009D01*
X023903Y003984D01*
X023916Y003995D02*
X024089Y003923D01*
X024276Y003923D01*
X024449Y003995D01*
X024463Y004009D01*
X024463Y003802D01*
X024592Y003673D01*
X024732Y003533D01*
X024713Y003487D01*
X024713Y003343D01*
X024715Y003492D02*
X024651Y003492D01*
X024675Y003590D02*
X024610Y003590D01*
X024576Y003689D02*
X024552Y003689D01*
X024478Y003787D02*
X024453Y003787D01*
X024463Y003886D02*
X024001Y003886D01*
X024423Y003984D02*
X024463Y003984D01*
X024683Y003893D02*
X024683Y004793D01*
X024283Y005193D01*
X022783Y005193D01*
X022283Y005693D01*
X022283Y012493D01*
X022483Y012693D01*
X022483Y013193D01*
X022767Y013313D02*
X022798Y013313D01*
X022783Y013277D01*
X022767Y013313D01*
X023083Y013193D02*
X023083Y012493D01*
X022683Y012093D01*
X022683Y005893D01*
X022983Y005593D01*
X026383Y005593D01*
X026783Y005193D01*
X026783Y003893D01*
X027183Y003493D01*
X027183Y003393D01*
X027653Y003393D02*
X027713Y003393D01*
X027713Y003343D02*
X027653Y003343D01*
X027653Y003487D01*
X027581Y003660D01*
X027449Y003792D01*
X027276Y003863D01*
X027124Y003863D01*
X027046Y003941D01*
X027089Y003923D01*
X027276Y003923D01*
X027449Y003995D01*
X027463Y004009D01*
X027463Y003802D01*
X027592Y003673D01*
X027732Y003533D01*
X027713Y003487D01*
X027713Y003343D01*
X027715Y003492D02*
X027651Y003492D01*
X027675Y003590D02*
X027610Y003590D01*
X027576Y003689D02*
X027552Y003689D01*
X027478Y003787D02*
X027453Y003787D01*
X027463Y003886D02*
X027101Y003886D01*
X027423Y003984D02*
X027463Y003984D01*
X027683Y003893D02*
X027683Y004593D01*
X026483Y005793D01*
X023083Y005793D01*
X022883Y005993D01*
X022883Y011993D01*
X023383Y012493D01*
X023383Y012893D01*
X022783Y012893D02*
X022783Y012593D01*
X022483Y012293D01*
X022483Y005793D01*
X022883Y005393D01*
X024383Y005393D01*
X024783Y004993D01*
X025483Y004993D01*
X025783Y004693D01*
X025783Y003993D01*
X026183Y003593D01*
X026183Y003393D01*
X026653Y003393D02*
X026713Y003393D01*
X026713Y003343D02*
X026653Y003343D01*
X026653Y003487D01*
X026581Y003660D01*
X026449Y003792D01*
X026276Y003863D01*
X026224Y003863D01*
X026164Y003923D01*
X026276Y003923D01*
X026449Y003995D01*
X026563Y004109D01*
X026563Y003802D01*
X026692Y003673D01*
X026761Y003604D01*
X026713Y003487D01*
X026713Y003343D01*
X026715Y003492D02*
X026651Y003492D01*
X026610Y003590D02*
X026756Y003590D01*
X026676Y003689D02*
X026552Y003689D01*
X026578Y003787D02*
X026453Y003787D01*
X026563Y003886D02*
X026201Y003886D01*
X026423Y003984D02*
X026563Y003984D01*
X026563Y004083D02*
X026537Y004083D01*
X025795Y003670D02*
X025692Y003773D01*
X025563Y003902D01*
X025563Y004109D01*
X025449Y003995D01*
X025276Y003923D01*
X025089Y003923D01*
X024916Y003995D01*
X024903Y004009D01*
X024903Y003984D01*
X024942Y003984D01*
X024903Y003984D02*
X025043Y003844D01*
X025089Y003863D01*
X025276Y003863D01*
X025449Y003792D01*
X025581Y003660D01*
X025653Y003487D01*
X025653Y003343D01*
X025713Y003343D01*
X025713Y003487D01*
X025784Y003660D01*
X025795Y003670D01*
X025776Y003689D02*
X025552Y003689D01*
X025610Y003590D02*
X025756Y003590D01*
X025715Y003492D02*
X025651Y003492D01*
X025653Y003393D02*
X025713Y003393D01*
X025183Y003393D02*
X024683Y003893D01*
X025001Y003886D02*
X025579Y003886D01*
X025563Y003984D02*
X025423Y003984D01*
X025537Y004083D02*
X025563Y004083D01*
X025453Y003787D02*
X025678Y003787D01*
X023732Y003533D02*
X023713Y003487D01*
X023713Y003343D01*
X023653Y003343D01*
X023653Y003487D01*
X023581Y003660D01*
X023449Y003792D01*
X023276Y003863D01*
X023089Y003863D01*
X023043Y003844D01*
X022903Y003984D01*
X022942Y003984D01*
X022916Y003995D02*
X023089Y003923D01*
X023276Y003923D01*
X023449Y003995D01*
X023463Y004009D01*
X023463Y003802D01*
X023592Y003673D01*
X023732Y003533D01*
X023715Y003492D02*
X023651Y003492D01*
X023653Y003393D02*
X023713Y003393D01*
X023183Y003393D02*
X022683Y003893D01*
X022683Y004693D01*
X021883Y005493D01*
X021883Y013193D01*
X022167Y013313D02*
X022198Y013313D01*
X022183Y013277D01*
X022167Y013313D01*
X021574Y013243D02*
X019692Y013243D01*
X019868Y013145D02*
X021397Y013145D01*
X021312Y013046D02*
X019954Y013046D01*
X019992Y012948D02*
X021274Y012948D01*
X021274Y012849D02*
X019992Y012849D01*
X019958Y012751D02*
X021307Y012751D01*
X021387Y012652D02*
X019903Y012652D01*
X019903Y012554D02*
X021463Y012554D01*
X021463Y012455D02*
X019903Y012455D01*
X019903Y012357D02*
X021463Y012357D01*
X021463Y012258D02*
X019903Y012258D01*
X019903Y012160D02*
X021463Y012160D01*
X021463Y012061D02*
X019903Y012061D01*
X019903Y011963D02*
X021463Y011963D01*
X021463Y011864D02*
X019903Y011864D01*
X019903Y011766D02*
X021463Y011766D01*
X021463Y011667D02*
X019903Y011667D01*
X019903Y011569D02*
X021463Y011569D01*
X021463Y011470D02*
X019903Y011470D01*
X019903Y011372D02*
X021463Y011372D01*
X021463Y011273D02*
X019903Y011273D01*
X019903Y011175D02*
X021463Y011175D01*
X021463Y011076D02*
X019903Y011076D01*
X019903Y010978D02*
X021463Y010978D01*
X021463Y010879D02*
X019903Y010879D01*
X019903Y010781D02*
X021463Y010781D01*
X021463Y010682D02*
X019903Y010682D01*
X019903Y010584D02*
X021463Y010584D01*
X021463Y010485D02*
X019903Y010485D01*
X019903Y010387D02*
X021463Y010387D01*
X021463Y010288D02*
X019903Y010288D01*
X019903Y010190D02*
X021463Y010190D01*
X021463Y010091D02*
X019903Y010091D01*
X019903Y009993D02*
X021463Y009993D01*
X021463Y009894D02*
X019903Y009894D01*
X019903Y009796D02*
X021463Y009796D01*
X021463Y009697D02*
X019903Y009697D01*
X019903Y009599D02*
X021463Y009599D01*
X021463Y009500D02*
X019903Y009500D01*
X019903Y009402D02*
X021463Y009402D01*
X021463Y009303D02*
X019903Y009303D01*
X019903Y009205D02*
X020757Y009205D01*
X020695Y009106D02*
X019903Y009106D01*
X019903Y009008D02*
X020674Y009008D01*
X020683Y008909D02*
X019903Y008909D01*
X019903Y008811D02*
X020728Y008811D01*
X020763Y008712D02*
X019903Y008712D01*
X019903Y008614D02*
X020851Y008614D01*
X021208Y009205D02*
X021463Y009205D01*
X023103Y009205D02*
X023963Y009205D01*
X023963Y009303D02*
X023103Y009303D01*
X023103Y009402D02*
X023963Y009402D01*
X023963Y009500D02*
X023103Y009500D01*
X023103Y009599D02*
X023963Y009599D01*
X023963Y009697D02*
X023103Y009697D01*
X023103Y009796D02*
X023963Y009796D01*
X023963Y009894D02*
X023103Y009894D01*
X023103Y009993D02*
X023963Y009993D01*
X023963Y010091D02*
X023103Y010091D01*
X023103Y010190D02*
X023963Y010190D01*
X023963Y010288D02*
X023103Y010288D01*
X023103Y010387D02*
X023878Y010387D01*
X023963Y010302D02*
X023963Y008302D01*
X024092Y008173D01*
X026252Y006013D01*
X023174Y006013D01*
X023103Y006084D01*
X023103Y011902D01*
X023463Y012262D01*
X023463Y010984D01*
X023463Y010802D01*
X023963Y010302D01*
X024183Y010393D02*
X023683Y010893D01*
X023683Y013193D01*
X023967Y013313D02*
X023998Y013313D01*
X023983Y013277D01*
X023967Y013313D01*
X024283Y013193D02*
X024283Y012693D01*
X024083Y012493D01*
X024083Y011093D01*
X024583Y010593D01*
X024583Y008593D01*
X027783Y005393D01*
X030083Y005393D01*
X030683Y004793D01*
X030683Y003893D01*
X031183Y003393D01*
X031653Y003393D02*
X031713Y003393D01*
X031713Y003343D02*
X031653Y003343D01*
X031653Y003487D01*
X031581Y003660D01*
X031449Y003792D01*
X031276Y003863D01*
X031089Y003863D01*
X031043Y003844D01*
X030903Y003984D01*
X030942Y003984D01*
X030916Y003995D02*
X030903Y004009D01*
X030903Y003984D01*
X030916Y003995D02*
X031089Y003923D01*
X031276Y003923D01*
X031449Y003995D01*
X031463Y004009D01*
X031463Y003802D01*
X031592Y003673D01*
X031732Y003533D01*
X031713Y003487D01*
X031713Y003343D01*
X031715Y003492D02*
X031651Y003492D01*
X031675Y003590D02*
X031610Y003590D01*
X031576Y003689D02*
X031552Y003689D01*
X031478Y003787D02*
X031453Y003787D01*
X031463Y003886D02*
X031001Y003886D01*
X031423Y003984D02*
X031463Y003984D01*
X031683Y003893D02*
X031683Y004893D01*
X031583Y004993D01*
X030783Y004993D01*
X030183Y005593D01*
X027883Y005593D01*
X024783Y008693D01*
X024783Y010693D01*
X024283Y011193D01*
X024283Y012393D01*
X024583Y012693D01*
X024583Y012893D01*
X024883Y012693D02*
X024483Y012293D01*
X024483Y011293D01*
X024983Y010793D01*
X024983Y008793D01*
X027983Y005793D01*
X030283Y005793D01*
X030883Y005193D01*
X032183Y005193D01*
X032583Y004793D01*
X032583Y003893D01*
X033083Y003393D01*
X033183Y003393D01*
X033653Y003393D02*
X033713Y003393D01*
X033713Y003343D02*
X033653Y003343D01*
X033653Y003487D01*
X033581Y003660D01*
X033449Y003792D01*
X033276Y003863D01*
X033089Y003863D01*
X032972Y003815D01*
X032803Y003984D01*
X032942Y003984D01*
X032916Y003995D02*
X032803Y004109D01*
X032803Y003984D01*
X032803Y004083D02*
X032829Y004083D01*
X032916Y003995D02*
X033089Y003923D01*
X033276Y003923D01*
X033449Y003995D01*
X033463Y004009D01*
X033463Y003802D01*
X033592Y003673D01*
X033732Y003533D01*
X033713Y003487D01*
X033713Y003343D01*
X033715Y003492D02*
X033651Y003492D01*
X033675Y003590D02*
X033610Y003590D01*
X033576Y003689D02*
X033552Y003689D01*
X033478Y003787D02*
X033453Y003787D01*
X033463Y003886D02*
X032901Y003886D01*
X033423Y003984D02*
X033463Y003984D01*
X033683Y003893D02*
X033683Y004793D01*
X033383Y005093D01*
X032583Y005093D01*
X032283Y005393D01*
X030983Y005393D01*
X030383Y005993D01*
X028083Y005993D01*
X025183Y008893D01*
X025183Y012893D01*
X025383Y012693D02*
X025383Y008993D01*
X028183Y006193D01*
X033883Y006193D01*
X034783Y005293D01*
X034783Y003793D01*
X035183Y003393D01*
X035653Y003393D02*
X035713Y003393D01*
X035713Y003343D02*
X035653Y003343D01*
X035653Y003487D01*
X035581Y003660D01*
X035449Y003792D01*
X035276Y003863D01*
X035089Y003863D01*
X035043Y003844D01*
X035003Y003884D01*
X035003Y003959D01*
X035089Y003923D01*
X035276Y003923D01*
X035449Y003995D01*
X035463Y004009D01*
X035463Y003802D01*
X035592Y003673D01*
X035732Y003533D01*
X035713Y003487D01*
X035713Y003343D01*
X035715Y003492D02*
X035651Y003492D01*
X035675Y003590D02*
X035610Y003590D01*
X035576Y003689D02*
X035552Y003689D01*
X035478Y003787D02*
X035453Y003787D01*
X035463Y003886D02*
X035003Y003886D01*
X035423Y003984D02*
X035463Y003984D01*
X035683Y003893D02*
X035683Y004693D01*
X033983Y006393D01*
X028283Y006393D01*
X025583Y009093D01*
X025583Y012493D01*
X025783Y012693D01*
X025783Y012893D01*
X025483Y012793D02*
X025383Y012693D01*
X025483Y012793D02*
X025483Y013193D01*
X025767Y013313D02*
X025798Y013313D01*
X025783Y013277D01*
X025767Y013313D01*
X026083Y013193D02*
X026083Y012493D01*
X025783Y012193D01*
X025783Y009193D01*
X028383Y006593D01*
X034083Y006593D01*
X035683Y004993D01*
X036383Y004993D01*
X036783Y004593D01*
X036783Y003893D01*
X037183Y003493D01*
X037183Y003393D01*
X037653Y003393D02*
X037713Y003393D01*
X037713Y003343D02*
X037653Y003343D01*
X037653Y003487D01*
X037581Y003660D01*
X037449Y003792D01*
X037276Y003863D01*
X037124Y003863D01*
X037046Y003941D01*
X037089Y003923D01*
X037276Y003923D01*
X037449Y003995D01*
X037463Y004009D01*
X037463Y003802D01*
X037592Y003673D01*
X037732Y003533D01*
X037713Y003487D01*
X037713Y003343D01*
X037715Y003492D02*
X037651Y003492D01*
X037675Y003590D02*
X037610Y003590D01*
X037576Y003689D02*
X037552Y003689D01*
X037478Y003787D02*
X037453Y003787D01*
X037463Y003886D02*
X037101Y003886D01*
X037423Y003984D02*
X037463Y003984D01*
X037683Y003893D02*
X037683Y004793D01*
X037283Y005193D01*
X035783Y005193D01*
X034183Y006793D01*
X028483Y006793D01*
X025983Y009293D01*
X025983Y012093D01*
X026383Y012493D01*
X026383Y012893D01*
X026903Y012849D02*
X037361Y012849D01*
X037146Y012948D02*
X026903Y012948D01*
X026903Y012976D02*
X026945Y013018D01*
X026992Y013132D01*
X026992Y013255D01*
X026967Y013313D01*
X035171Y013313D01*
X035567Y013299D01*
X036352Y013186D01*
X037112Y012963D01*
X037833Y012634D01*
X038499Y012206D01*
X039098Y011687D01*
X039617Y011088D01*
X040046Y010421D01*
X040375Y009701D01*
X040598Y008940D01*
X040711Y008156D01*
X040725Y007760D01*
X040725Y003343D01*
X040653Y003343D01*
X040653Y003487D01*
X040581Y003660D01*
X040449Y003792D01*
X040276Y003863D01*
X040089Y003863D01*
X039916Y003792D01*
X039784Y003660D01*
X039713Y003487D01*
X039713Y003343D01*
X039653Y003343D01*
X039653Y003487D01*
X039581Y003660D01*
X039449Y003792D01*
X039276Y003863D01*
X039089Y003863D01*
X039043Y003844D01*
X038903Y003984D01*
X038942Y003984D01*
X038916Y003995D02*
X039089Y003923D01*
X039276Y003923D01*
X039449Y003995D01*
X039581Y004127D01*
X039653Y004300D01*
X039653Y004487D01*
X039581Y004660D01*
X039449Y004792D01*
X039276Y004863D01*
X039089Y004863D01*
X038916Y004792D01*
X038856Y004731D01*
X038503Y005084D01*
X038374Y005213D01*
X037874Y005213D01*
X037603Y005484D01*
X037474Y005613D01*
X035974Y005613D01*
X034503Y007084D01*
X034374Y007213D01*
X028674Y007213D01*
X026403Y009484D01*
X026403Y011902D01*
X026774Y012273D01*
X026903Y012402D01*
X026903Y012976D01*
X026956Y013046D02*
X036829Y013046D01*
X036494Y013145D02*
X026992Y013145D01*
X026992Y013243D02*
X035956Y013243D01*
X037577Y012751D02*
X026903Y012751D01*
X026903Y012652D02*
X037793Y012652D01*
X037958Y012554D02*
X026903Y012554D01*
X026903Y012455D02*
X038111Y012455D01*
X038264Y012357D02*
X026857Y012357D01*
X026759Y012258D02*
X038417Y012258D01*
X038552Y012160D02*
X026660Y012160D01*
X026562Y012061D02*
X038666Y012061D01*
X038780Y011963D02*
X026463Y011963D01*
X026403Y011864D02*
X038893Y011864D01*
X039007Y011766D02*
X026403Y011766D01*
X026403Y011667D02*
X039115Y011667D01*
X039200Y011569D02*
X026403Y011569D01*
X026403Y011470D02*
X039286Y011470D01*
X039371Y011372D02*
X026403Y011372D01*
X026403Y011273D02*
X039457Y011273D01*
X039542Y011175D02*
X026403Y011175D01*
X026403Y011076D02*
X039625Y011076D01*
X039688Y010978D02*
X026403Y010978D01*
X026403Y010879D02*
X039751Y010879D01*
X039815Y010781D02*
X026403Y010781D01*
X026403Y010682D02*
X039878Y010682D01*
X039941Y010584D02*
X026403Y010584D01*
X026403Y010485D02*
X040004Y010485D01*
X040061Y010387D02*
X026403Y010387D01*
X026403Y010288D02*
X040106Y010288D01*
X040151Y010190D02*
X026403Y010190D01*
X026403Y010091D02*
X040196Y010091D01*
X040241Y009993D02*
X026403Y009993D01*
X026403Y009894D02*
X040286Y009894D01*
X040331Y009796D02*
X026403Y009796D01*
X026403Y009697D02*
X040376Y009697D01*
X040405Y009599D02*
X026403Y009599D01*
X026403Y009500D02*
X040433Y009500D01*
X040462Y009402D02*
X026485Y009402D01*
X026584Y009303D02*
X040491Y009303D01*
X040520Y009205D02*
X026682Y009205D01*
X026781Y009106D02*
X040549Y009106D01*
X040578Y009008D02*
X026879Y009008D01*
X026978Y008909D02*
X040602Y008909D01*
X040617Y008811D02*
X027076Y008811D01*
X027175Y008712D02*
X040631Y008712D01*
X040645Y008614D02*
X027273Y008614D01*
X027372Y008515D02*
X040659Y008515D01*
X040673Y008417D02*
X027470Y008417D01*
X027569Y008318D02*
X040687Y008318D01*
X040702Y008220D02*
X027667Y008220D01*
X027766Y008121D02*
X040712Y008121D01*
X040715Y008023D02*
X027864Y008023D01*
X027963Y007924D02*
X040719Y007924D01*
X040722Y007826D02*
X028061Y007826D01*
X028160Y007727D02*
X040725Y007727D01*
X040725Y007629D02*
X028258Y007629D01*
X028357Y007530D02*
X040725Y007530D01*
X040725Y007432D02*
X028455Y007432D01*
X028554Y007333D02*
X040725Y007333D01*
X040725Y007235D02*
X028652Y007235D01*
X028583Y006993D02*
X026183Y009393D01*
X026183Y011993D01*
X026683Y012493D01*
X026683Y013193D01*
X026398Y013313D02*
X026367Y013313D01*
X026383Y013277D01*
X026398Y013313D01*
X025198Y013313D02*
X025167Y013313D01*
X025183Y013277D01*
X025198Y013313D01*
X024883Y013193D02*
X024883Y012693D01*
X024963Y012462D02*
X024963Y011124D01*
X024703Y011384D01*
X024703Y012202D01*
X024963Y012462D01*
X024963Y012455D02*
X024956Y012455D01*
X024963Y012357D02*
X024857Y012357D01*
X024759Y012258D02*
X024963Y012258D01*
X024963Y012160D02*
X024703Y012160D01*
X024703Y012061D02*
X024963Y012061D01*
X024963Y011963D02*
X024703Y011963D01*
X024703Y011864D02*
X024963Y011864D01*
X024963Y011766D02*
X024703Y011766D01*
X024703Y011667D02*
X024963Y011667D01*
X024963Y011569D02*
X024703Y011569D01*
X024703Y011470D02*
X024963Y011470D01*
X024963Y011372D02*
X024715Y011372D01*
X024814Y011273D02*
X024963Y011273D01*
X024963Y011175D02*
X024912Y011175D01*
X024383Y010493D02*
X023883Y010993D01*
X023883Y012793D01*
X023983Y012893D01*
X024583Y013277D02*
X024567Y013313D01*
X024598Y013313D01*
X024583Y013277D01*
X023398Y013313D02*
X023367Y013313D01*
X023383Y013277D01*
X023398Y013313D01*
X022183Y012893D02*
X022083Y012793D01*
X022083Y005593D01*
X023134Y006053D02*
X026212Y006053D01*
X026114Y006151D02*
X023103Y006151D01*
X023103Y006250D02*
X026015Y006250D01*
X025917Y006348D02*
X023103Y006348D01*
X023103Y006447D02*
X025818Y006447D01*
X025720Y006545D02*
X023103Y006545D01*
X023103Y006644D02*
X025621Y006644D01*
X025523Y006742D02*
X023103Y006742D01*
X023103Y006841D02*
X025424Y006841D01*
X025326Y006939D02*
X023103Y006939D01*
X023103Y007038D02*
X025227Y007038D01*
X025129Y007136D02*
X023103Y007136D01*
X023103Y007235D02*
X025030Y007235D01*
X024932Y007333D02*
X023103Y007333D01*
X023103Y007432D02*
X024833Y007432D01*
X024735Y007530D02*
X023103Y007530D01*
X023103Y007629D02*
X024636Y007629D01*
X024538Y007727D02*
X023103Y007727D01*
X023103Y007826D02*
X024439Y007826D01*
X024341Y007924D02*
X023103Y007924D01*
X023103Y008023D02*
X024242Y008023D01*
X024144Y008121D02*
X023103Y008121D01*
X023103Y008220D02*
X024045Y008220D01*
X023963Y008318D02*
X023103Y008318D01*
X023103Y008417D02*
X023963Y008417D01*
X023963Y008515D02*
X023103Y008515D01*
X023103Y008614D02*
X023963Y008614D01*
X023963Y008712D02*
X023103Y008712D01*
X023103Y008811D02*
X023963Y008811D01*
X023963Y008909D02*
X023103Y008909D01*
X023103Y009008D02*
X023963Y009008D01*
X023963Y009106D02*
X023103Y009106D01*
X024183Y008393D02*
X024183Y010393D01*
X024383Y010493D02*
X024383Y008493D01*
X027683Y005193D01*
X028583Y005193D01*
X028783Y004993D01*
X029483Y004993D01*
X029783Y004693D01*
X029783Y003893D01*
X030183Y003493D01*
X030183Y003393D01*
X030653Y003393D02*
X030713Y003393D01*
X030713Y003343D02*
X030653Y003343D01*
X030653Y003487D01*
X030581Y003660D01*
X030449Y003792D01*
X030276Y003863D01*
X030124Y003863D01*
X030046Y003941D01*
X030089Y003923D01*
X030276Y003923D01*
X030449Y003995D01*
X030463Y004009D01*
X030463Y003802D01*
X030592Y003673D01*
X030732Y003533D01*
X030713Y003487D01*
X030713Y003343D01*
X030715Y003492D02*
X030651Y003492D01*
X030675Y003590D02*
X030610Y003590D01*
X030576Y003689D02*
X030552Y003689D01*
X030478Y003787D02*
X030453Y003787D01*
X030463Y003886D02*
X030101Y003886D01*
X030423Y003984D02*
X030463Y003984D01*
X029761Y003604D02*
X029563Y003802D01*
X029563Y004109D01*
X029449Y003995D01*
X029276Y003923D01*
X029089Y003923D01*
X028916Y003995D01*
X028903Y004009D01*
X028903Y003984D01*
X028942Y003984D01*
X028903Y003984D02*
X029043Y003844D01*
X029089Y003863D01*
X029276Y003863D01*
X029449Y003792D01*
X029581Y003660D01*
X029653Y003487D01*
X029653Y003343D01*
X029713Y003343D01*
X029713Y003487D01*
X029761Y003604D01*
X029756Y003590D02*
X029610Y003590D01*
X029651Y003492D02*
X029715Y003492D01*
X029713Y003393D02*
X029653Y003393D01*
X029183Y003393D02*
X028683Y003893D01*
X028683Y004793D01*
X028483Y004993D01*
X027583Y004993D01*
X024183Y008393D01*
X028583Y006993D02*
X034283Y006993D01*
X035883Y005393D01*
X037383Y005393D01*
X037783Y004993D01*
X038283Y004993D01*
X038683Y004593D01*
X038683Y003893D01*
X039183Y003393D01*
X039653Y003393D02*
X039713Y003393D01*
X039715Y003492D02*
X039651Y003492D01*
X039610Y003590D02*
X039756Y003590D01*
X039814Y003689D02*
X039552Y003689D01*
X039453Y003787D02*
X039912Y003787D01*
X039916Y003995D02*
X040089Y003923D01*
X040276Y003923D01*
X040449Y003995D01*
X040581Y004127D01*
X040653Y004300D01*
X040653Y004487D01*
X040581Y004660D01*
X040449Y004792D01*
X040276Y004863D01*
X040089Y004863D01*
X039916Y004792D01*
X039784Y004660D01*
X039713Y004487D01*
X039713Y004300D01*
X039784Y004127D01*
X039916Y003995D01*
X039942Y003984D02*
X039423Y003984D01*
X039537Y004083D02*
X039829Y004083D01*
X039762Y004181D02*
X039604Y004181D01*
X039644Y004280D02*
X039721Y004280D01*
X039713Y004378D02*
X039653Y004378D01*
X039653Y004477D02*
X039713Y004477D01*
X039749Y004575D02*
X039616Y004575D01*
X039567Y004674D02*
X039799Y004674D01*
X039897Y004772D02*
X039468Y004772D01*
X038897Y004772D02*
X038815Y004772D01*
X038716Y004871D02*
X040725Y004871D01*
X040725Y004969D02*
X038618Y004969D01*
X038519Y005068D02*
X040725Y005068D01*
X040725Y005166D02*
X038421Y005166D01*
X037822Y005265D02*
X040725Y005265D01*
X040725Y005363D02*
X037724Y005363D01*
X037625Y005462D02*
X040725Y005462D01*
X040725Y005560D02*
X037527Y005560D01*
X037192Y004973D02*
X036714Y004973D01*
X036906Y004781D01*
X036916Y004792D01*
X037089Y004863D01*
X037276Y004863D01*
X037320Y004845D01*
X037192Y004973D01*
X037196Y004969D02*
X036718Y004969D01*
X036816Y004871D02*
X037294Y004871D01*
X035202Y004863D02*
X035089Y004863D01*
X035003Y004827D01*
X035003Y005062D01*
X035202Y004863D01*
X035194Y004871D02*
X035003Y004871D01*
X035003Y004969D02*
X035096Y004969D01*
X034563Y004969D02*
X033818Y004969D01*
X033903Y004884D02*
X033603Y005184D01*
X033474Y005313D01*
X032674Y005313D01*
X032503Y005484D01*
X032374Y005613D01*
X031074Y005613D01*
X030714Y005973D01*
X033792Y005973D01*
X034563Y005202D01*
X034563Y004678D01*
X034449Y004792D01*
X034276Y004863D01*
X034089Y004863D01*
X033916Y004792D01*
X033903Y004778D01*
X033903Y004884D01*
X033903Y004871D02*
X034563Y004871D01*
X034563Y004772D02*
X034468Y004772D01*
X034563Y005068D02*
X033719Y005068D01*
X033621Y005166D02*
X034563Y005166D01*
X034500Y005265D02*
X033522Y005265D01*
X034106Y005659D02*
X031028Y005659D01*
X030930Y005757D02*
X034008Y005757D01*
X033909Y005856D02*
X030831Y005856D01*
X030733Y005954D02*
X033811Y005954D01*
X034205Y005560D02*
X032427Y005560D01*
X032525Y005462D02*
X034303Y005462D01*
X034402Y005363D02*
X032624Y005363D01*
X032202Y004863D02*
X032092Y004973D01*
X031903Y004973D01*
X031903Y004778D01*
X031916Y004792D01*
X032089Y004863D01*
X032202Y004863D01*
X032194Y004871D02*
X031903Y004871D01*
X031903Y004969D02*
X032096Y004969D01*
X032803Y004873D02*
X032803Y004678D01*
X032916Y004792D01*
X033089Y004863D01*
X033276Y004863D01*
X033320Y004845D01*
X033292Y004873D01*
X032803Y004873D01*
X032803Y004871D02*
X033294Y004871D01*
X032897Y004772D02*
X032803Y004772D01*
X032089Y003923D02*
X031916Y003995D01*
X031903Y004009D01*
X031903Y003984D01*
X031942Y003984D01*
X031903Y003984D02*
X032043Y003844D01*
X032089Y003863D01*
X032276Y003863D01*
X032363Y003827D01*
X032363Y003959D01*
X032276Y003923D01*
X032089Y003923D01*
X032001Y003886D02*
X032363Y003886D01*
X032183Y003393D02*
X031683Y003893D01*
X032635Y003530D02*
X032713Y003452D01*
X032713Y003343D01*
X032653Y003343D01*
X032653Y003487D01*
X032635Y003530D01*
X032651Y003492D02*
X032673Y003492D01*
X032653Y003393D02*
X032713Y003393D01*
X033683Y003893D02*
X034183Y003393D01*
X034653Y003393D02*
X034713Y003393D01*
X034713Y003343D02*
X034653Y003343D01*
X034653Y003487D01*
X034581Y003660D01*
X034449Y003792D01*
X034276Y003863D01*
X034089Y003863D01*
X034043Y003844D01*
X033903Y003984D01*
X033942Y003984D01*
X033916Y003995D02*
X033903Y004009D01*
X033903Y003984D01*
X033916Y003995D02*
X034089Y003923D01*
X034276Y003923D01*
X034449Y003995D01*
X034563Y004109D01*
X034563Y003702D01*
X034692Y003573D01*
X034732Y003533D01*
X034713Y003487D01*
X034713Y003343D01*
X034715Y003492D02*
X034651Y003492D01*
X034675Y003590D02*
X034610Y003590D01*
X034576Y003689D02*
X034552Y003689D01*
X034563Y003787D02*
X034453Y003787D01*
X034563Y003886D02*
X034001Y003886D01*
X034423Y003984D02*
X034563Y003984D01*
X034563Y004083D02*
X034537Y004083D01*
X035683Y003893D02*
X036183Y003393D01*
X036653Y003393D02*
X036713Y003393D01*
X036713Y003343D02*
X036653Y003343D01*
X036653Y003487D01*
X036581Y003660D01*
X036449Y003792D01*
X036276Y003863D01*
X036089Y003863D01*
X036043Y003844D01*
X035903Y003984D01*
X035942Y003984D01*
X035916Y003995D02*
X035903Y004009D01*
X035903Y003984D01*
X035916Y003995D02*
X036089Y003923D01*
X036276Y003923D01*
X036449Y003995D01*
X036563Y004109D01*
X036563Y003802D01*
X036692Y003673D01*
X036761Y003604D01*
X036713Y003487D01*
X036713Y003343D01*
X036715Y003492D02*
X036651Y003492D01*
X036610Y003590D02*
X036756Y003590D01*
X036676Y003689D02*
X036552Y003689D01*
X036578Y003787D02*
X036453Y003787D01*
X036563Y003886D02*
X036001Y003886D01*
X036423Y003984D02*
X036563Y003984D01*
X036563Y004083D02*
X036537Y004083D01*
X037683Y003893D02*
X038183Y003393D01*
X038653Y003393D02*
X038713Y003393D01*
X038713Y003343D02*
X038653Y003343D01*
X038653Y003487D01*
X038581Y003660D01*
X038449Y003792D01*
X038276Y003863D01*
X038089Y003863D01*
X038043Y003844D01*
X037903Y003984D01*
X037942Y003984D01*
X037916Y003995D02*
X037903Y004009D01*
X037903Y003984D01*
X037916Y003995D02*
X038089Y003923D01*
X038276Y003923D01*
X038449Y003995D01*
X038463Y004009D01*
X038463Y003802D01*
X038592Y003673D01*
X038732Y003533D01*
X038713Y003487D01*
X038713Y003343D01*
X038715Y003492D02*
X038651Y003492D01*
X038675Y003590D02*
X038610Y003590D01*
X038576Y003689D02*
X038552Y003689D01*
X038478Y003787D02*
X038453Y003787D01*
X038463Y003886D02*
X038001Y003886D01*
X038423Y003984D02*
X038463Y003984D01*
X038903Y003984D02*
X038903Y004009D01*
X038916Y003995D01*
X039001Y003886D02*
X040725Y003886D01*
X040725Y003984D02*
X040423Y003984D01*
X040537Y004083D02*
X040725Y004083D01*
X040725Y004181D02*
X040604Y004181D01*
X040644Y004280D02*
X040725Y004280D01*
X040725Y004378D02*
X040653Y004378D01*
X040653Y004477D02*
X040725Y004477D01*
X040725Y004575D02*
X040616Y004575D01*
X040567Y004674D02*
X040725Y004674D01*
X040725Y004772D02*
X040468Y004772D01*
X040725Y005659D02*
X035928Y005659D01*
X035830Y005757D02*
X040725Y005757D01*
X040725Y005856D02*
X035731Y005856D01*
X035633Y005954D02*
X040725Y005954D01*
X040725Y006053D02*
X035534Y006053D01*
X035436Y006151D02*
X040725Y006151D01*
X040725Y006250D02*
X035337Y006250D01*
X035239Y006348D02*
X040725Y006348D01*
X040725Y006447D02*
X035140Y006447D01*
X035042Y006545D02*
X040725Y006545D01*
X040725Y006644D02*
X034943Y006644D01*
X034845Y006742D02*
X040725Y006742D01*
X040725Y006841D02*
X034746Y006841D01*
X034648Y006939D02*
X040725Y006939D01*
X040725Y007038D02*
X034549Y007038D01*
X034451Y007136D02*
X040725Y007136D01*
X030320Y004845D02*
X030276Y004863D01*
X030089Y004863D01*
X029972Y004815D01*
X029703Y005084D01*
X029703Y005084D01*
X029614Y005173D01*
X029992Y005173D01*
X030320Y004845D01*
X030294Y004871D02*
X029916Y004871D01*
X029818Y004969D02*
X030196Y004969D01*
X030097Y005068D02*
X029719Y005068D01*
X029621Y005166D02*
X029999Y005166D01*
X027898Y004773D02*
X027814Y004773D01*
X027856Y004731D01*
X027898Y004773D01*
X027897Y004772D02*
X027815Y004772D01*
X027102Y004863D02*
X027003Y004962D01*
X027003Y004827D01*
X027089Y004863D01*
X027102Y004863D01*
X027094Y004871D02*
X027003Y004871D01*
X026563Y004871D02*
X025916Y004871D01*
X025972Y004815D02*
X026089Y004863D01*
X026276Y004863D01*
X026449Y004792D01*
X026563Y004678D01*
X026563Y005102D01*
X026292Y005373D01*
X024714Y005373D01*
X024874Y005213D01*
X025574Y005213D01*
X025703Y005084D01*
X025972Y004815D01*
X026468Y004772D02*
X026563Y004772D01*
X026563Y004969D02*
X025818Y004969D01*
X025719Y005068D02*
X026563Y005068D01*
X026499Y005166D02*
X025621Y005166D01*
X026400Y005265D02*
X024822Y005265D01*
X024724Y005363D02*
X026302Y005363D01*
X024320Y004845D02*
X024276Y004863D01*
X024089Y004863D01*
X023916Y004792D01*
X023903Y004778D01*
X023903Y004884D01*
X023814Y004973D01*
X024192Y004973D01*
X024320Y004845D01*
X024294Y004871D02*
X023903Y004871D01*
X023818Y004969D02*
X024196Y004969D01*
X023463Y003984D02*
X023423Y003984D01*
X023463Y003886D02*
X023001Y003886D01*
X022916Y003995D02*
X022903Y004009D01*
X022903Y003984D01*
X022463Y003984D02*
X022423Y003984D01*
X022449Y003995D02*
X022463Y004009D01*
X022463Y003802D01*
X022592Y003673D01*
X022732Y003533D01*
X022713Y003487D01*
X022713Y003343D01*
X022653Y003343D01*
X022653Y003487D01*
X022581Y003660D01*
X022449Y003792D01*
X022276Y003863D01*
X022089Y003863D01*
X022043Y003844D01*
X021903Y003984D01*
X021942Y003984D01*
X021916Y003995D02*
X021903Y004009D01*
X021903Y003984D01*
X021916Y003995D02*
X022089Y003923D01*
X022276Y003923D01*
X022449Y003995D01*
X022463Y003886D02*
X022001Y003886D01*
X021683Y003893D02*
X021683Y012793D01*
X021583Y012893D01*
X019683Y012893D02*
X019683Y003893D01*
X019903Y003984D02*
X019903Y004009D01*
X019916Y003995D01*
X020453Y003787D02*
X020478Y003787D01*
X020552Y003689D02*
X020576Y003689D01*
X020592Y003673D02*
X020592Y003673D01*
X020610Y003590D02*
X020675Y003590D01*
X020651Y003492D02*
X020715Y003492D01*
X020713Y003393D02*
X020653Y003393D01*
X020683Y003893D02*
X021183Y003393D01*
X021653Y003393D02*
X021713Y003393D01*
X021713Y003343D02*
X021653Y003343D01*
X021653Y003487D01*
X021581Y003660D01*
X021449Y003792D01*
X021276Y003863D01*
X021089Y003863D01*
X021043Y003844D01*
X020903Y003984D01*
X020942Y003984D01*
X020916Y003995D02*
X020903Y004009D01*
X020903Y003984D01*
X020916Y003995D02*
X021089Y003923D01*
X021276Y003923D01*
X021449Y003995D01*
X021463Y004009D01*
X021463Y003802D01*
X021592Y003673D01*
X021732Y003533D01*
X021713Y003487D01*
X021713Y003343D01*
X021715Y003492D02*
X021651Y003492D01*
X021675Y003590D02*
X021610Y003590D01*
X021592Y003673D02*
X021592Y003673D01*
X021576Y003689D02*
X021552Y003689D01*
X021478Y003787D02*
X021453Y003787D01*
X021463Y003886D02*
X021001Y003886D01*
X021423Y003984D02*
X021463Y003984D01*
X021683Y003893D02*
X022183Y003393D01*
X022653Y003393D02*
X022713Y003393D01*
X022715Y003492D02*
X022651Y003492D01*
X022675Y003590D02*
X022610Y003590D01*
X022576Y003689D02*
X022552Y003689D01*
X022478Y003787D02*
X022453Y003787D01*
X023453Y003787D02*
X023478Y003787D01*
X023552Y003689D02*
X023576Y003689D01*
X023610Y003590D02*
X023675Y003590D01*
X027683Y003893D02*
X028183Y003393D01*
X028653Y003393D02*
X028713Y003393D01*
X028713Y003343D02*
X028653Y003343D01*
X028653Y003487D01*
X028581Y003660D01*
X028449Y003792D01*
X028276Y003863D01*
X028089Y003863D01*
X028043Y003844D01*
X027903Y003984D01*
X027942Y003984D01*
X027916Y003995D02*
X027903Y004009D01*
X027903Y003984D01*
X027916Y003995D02*
X028089Y003923D01*
X028276Y003923D01*
X028449Y003995D01*
X028463Y004009D01*
X028463Y003802D01*
X028592Y003673D01*
X028732Y003533D01*
X028713Y003487D01*
X028713Y003343D01*
X028715Y003492D02*
X028651Y003492D01*
X028675Y003590D02*
X028610Y003590D01*
X028576Y003689D02*
X028552Y003689D01*
X028478Y003787D02*
X028453Y003787D01*
X028463Y003886D02*
X028001Y003886D01*
X028423Y003984D02*
X028463Y003984D01*
X029001Y003886D02*
X029563Y003886D01*
X029563Y003984D02*
X029423Y003984D01*
X029537Y004083D02*
X029563Y004083D01*
X029578Y003787D02*
X029453Y003787D01*
X029552Y003689D02*
X029676Y003689D01*
X019463Y004778D02*
X019463Y005162D01*
X019164Y004863D01*
X019276Y004863D01*
X019449Y004792D01*
X019463Y004778D01*
X019463Y004871D02*
X019171Y004871D01*
X019270Y004969D02*
X019463Y004969D01*
X019463Y005068D02*
X019368Y005068D01*
X019483Y005493D02*
X018683Y004693D01*
X018683Y003893D01*
X018903Y003984D02*
X018942Y003984D01*
X017912Y003787D02*
X017903Y003787D01*
X017463Y003787D02*
X017453Y003787D01*
X016912Y003787D02*
X016903Y003787D01*
X016683Y003793D02*
X016283Y003393D01*
X016183Y003393D01*
X016653Y003393D02*
X016713Y003393D01*
X016713Y003343D02*
X016653Y003343D01*
X016653Y003452D01*
X016731Y003530D01*
X016713Y003487D01*
X016713Y003343D01*
X016715Y003492D02*
X016692Y003492D01*
X017183Y003393D02*
X017583Y003393D01*
X017683Y003493D01*
X017683Y004693D01*
X017883Y004893D01*
X018583Y004893D01*
X019283Y005593D01*
X019283Y012393D01*
X019083Y012593D01*
X019083Y012893D01*
X019383Y012593D02*
X019483Y012493D01*
X019483Y005493D01*
X019083Y005693D02*
X018483Y005093D01*
X016883Y005093D01*
X016683Y004893D01*
X016683Y003793D01*
X015912Y003787D02*
X015903Y003787D01*
X015463Y003787D02*
X015453Y003787D01*
X015713Y003412D02*
X015713Y003343D01*
X015653Y003343D01*
X015653Y003352D01*
X015713Y003412D01*
X015713Y003393D02*
X015694Y003393D01*
X014683Y003893D02*
X014183Y003393D01*
X013713Y003393D02*
X013653Y003393D01*
X013653Y003343D02*
X013653Y003487D01*
X013634Y003533D01*
X013903Y003802D01*
X013903Y004009D01*
X013916Y003995D01*
X014089Y003923D01*
X014276Y003923D01*
X014449Y003995D01*
X014463Y004009D01*
X014463Y003984D01*
X014423Y003984D01*
X014463Y003984D02*
X014322Y003844D01*
X014276Y003863D01*
X014089Y003863D01*
X013916Y003792D01*
X013784Y003660D01*
X013713Y003487D01*
X013713Y003343D01*
X013653Y003343D01*
X013651Y003492D02*
X013715Y003492D01*
X013691Y003590D02*
X013756Y003590D01*
X013789Y003689D02*
X013814Y003689D01*
X013888Y003787D02*
X013912Y003787D01*
X013903Y003886D02*
X014364Y003886D01*
X014683Y003893D02*
X014683Y004693D01*
X014983Y004993D01*
X015483Y004993D01*
X015983Y005493D01*
X018283Y005493D01*
X018683Y005893D01*
X018683Y012093D01*
X018183Y012593D01*
X018183Y013193D01*
X018467Y013313D02*
X018498Y013313D01*
X018483Y013277D01*
X018467Y013313D01*
X018783Y013193D02*
X018783Y012593D01*
X019083Y012293D01*
X019083Y005693D01*
X018063Y006184D02*
X017992Y006113D01*
X016014Y006113D01*
X017503Y007602D01*
X017503Y007784D01*
X017503Y012362D01*
X018063Y011802D01*
X018063Y006184D01*
X018030Y006151D02*
X016052Y006151D01*
X016150Y006250D02*
X018063Y006250D01*
X018063Y006348D02*
X016249Y006348D01*
X016347Y006447D02*
X018063Y006447D01*
X018063Y006545D02*
X016446Y006545D01*
X016544Y006644D02*
X018063Y006644D01*
X018063Y006742D02*
X016643Y006742D01*
X016741Y006841D02*
X018063Y006841D01*
X018063Y006939D02*
X016840Y006939D01*
X016938Y007038D02*
X018063Y007038D01*
X018063Y007136D02*
X017037Y007136D01*
X017135Y007235D02*
X018063Y007235D01*
X018063Y007333D02*
X017234Y007333D01*
X017332Y007432D02*
X018063Y007432D01*
X018063Y007530D02*
X017431Y007530D01*
X017503Y007629D02*
X018063Y007629D01*
X018063Y007727D02*
X017503Y007727D01*
X017503Y007826D02*
X018063Y007826D01*
X018063Y007924D02*
X017503Y007924D01*
X017503Y008023D02*
X018063Y008023D01*
X018063Y008121D02*
X017503Y008121D01*
X017503Y008220D02*
X018063Y008220D01*
X018063Y008318D02*
X017503Y008318D01*
X017503Y008417D02*
X018063Y008417D01*
X018063Y008515D02*
X017503Y008515D01*
X017503Y008614D02*
X018063Y008614D01*
X018063Y008712D02*
X017503Y008712D01*
X017503Y008811D02*
X018063Y008811D01*
X018063Y008909D02*
X017503Y008909D01*
X017503Y009008D02*
X018063Y009008D01*
X018063Y009106D02*
X017503Y009106D01*
X017503Y009205D02*
X018063Y009205D01*
X018063Y009303D02*
X017503Y009303D01*
X017503Y009402D02*
X018063Y009402D01*
X018063Y009500D02*
X017503Y009500D01*
X017503Y009599D02*
X018063Y009599D01*
X018063Y009697D02*
X017503Y009697D01*
X017503Y009796D02*
X018063Y009796D01*
X018063Y009894D02*
X017503Y009894D01*
X017503Y009993D02*
X018063Y009993D01*
X018063Y010091D02*
X017503Y010091D01*
X017503Y010190D02*
X018063Y010190D01*
X018063Y010288D02*
X017503Y010288D01*
X017503Y010387D02*
X018063Y010387D01*
X018063Y010485D02*
X017503Y010485D01*
X017503Y010584D02*
X018063Y010584D01*
X018063Y010682D02*
X017503Y010682D01*
X017503Y010781D02*
X018063Y010781D01*
X018063Y010879D02*
X017503Y010879D01*
X017503Y010978D02*
X018063Y010978D01*
X018063Y011076D02*
X017503Y011076D01*
X017503Y011175D02*
X018063Y011175D01*
X018063Y011273D02*
X017503Y011273D01*
X017503Y011372D02*
X018063Y011372D01*
X018063Y011470D02*
X017503Y011470D01*
X017503Y011569D02*
X018063Y011569D01*
X018063Y011667D02*
X017503Y011667D01*
X017503Y011766D02*
X018063Y011766D01*
X018001Y011864D02*
X017503Y011864D01*
X017503Y011963D02*
X017902Y011963D01*
X017804Y012061D02*
X017503Y012061D01*
X017503Y012160D02*
X017705Y012160D01*
X017607Y012258D02*
X017503Y012258D01*
X017503Y012357D02*
X017508Y012357D01*
X016883Y012593D02*
X016683Y012793D01*
X016683Y012893D01*
X016383Y012693D02*
X016483Y012593D01*
X016583Y012593D01*
X016683Y012493D01*
X016683Y007993D01*
X014883Y006193D01*
X012283Y006193D01*
X011583Y005493D01*
X010083Y005493D01*
X009583Y004993D01*
X009083Y004993D01*
X008683Y004593D01*
X008683Y003893D01*
X008183Y003393D01*
X008653Y003393D02*
X008713Y003393D01*
X008713Y003343D02*
X008653Y003343D01*
X008653Y003487D01*
X008634Y003533D01*
X008774Y003673D01*
X008903Y003802D01*
X008903Y004009D01*
X008916Y003995D01*
X009089Y003923D01*
X009276Y003923D01*
X009449Y003995D01*
X009463Y004009D01*
X009463Y003984D01*
X009423Y003984D01*
X009463Y003984D02*
X009322Y003844D01*
X009276Y003863D01*
X009089Y003863D01*
X008916Y003792D01*
X008784Y003660D01*
X008713Y003487D01*
X008713Y003343D01*
X008715Y003492D02*
X008651Y003492D01*
X008691Y003590D02*
X008756Y003590D01*
X008789Y003689D02*
X008814Y003689D01*
X008888Y003787D02*
X008912Y003787D01*
X008903Y003886D02*
X009364Y003886D01*
X009683Y003893D02*
X009683Y004793D01*
X010183Y005293D01*
X011683Y005293D01*
X012383Y005993D01*
X014983Y005993D01*
X016883Y007893D01*
X016883Y012593D01*
X017083Y012693D02*
X017083Y007793D01*
X015083Y005793D01*
X012483Y005793D01*
X011783Y005093D01*
X010983Y005093D01*
X010783Y004893D01*
X010783Y003993D01*
X010183Y003393D01*
X010653Y003393D02*
X010713Y003393D01*
X010713Y003343D02*
X010653Y003343D01*
X010653Y003487D01*
X010634Y003533D01*
X010874Y003773D01*
X011003Y003902D01*
X011003Y003959D01*
X011089Y003923D01*
X011276Y003923D01*
X011449Y003995D01*
X011463Y004009D01*
X011463Y003984D01*
X011423Y003984D01*
X011463Y003984D02*
X011322Y003844D01*
X011276Y003863D01*
X011089Y003863D01*
X010916Y003792D01*
X010784Y003660D01*
X010713Y003487D01*
X010713Y003343D01*
X010715Y003492D02*
X010651Y003492D01*
X010691Y003590D02*
X010756Y003590D01*
X010789Y003689D02*
X010814Y003689D01*
X010888Y003787D02*
X010912Y003787D01*
X010986Y003886D02*
X011364Y003886D01*
X010563Y004084D02*
X010322Y003844D01*
X010276Y003863D01*
X010089Y003863D01*
X009916Y003792D01*
X009784Y003660D01*
X009713Y003487D01*
X009713Y003343D01*
X009653Y003343D01*
X009653Y003487D01*
X009634Y003533D01*
X009774Y003673D01*
X009903Y003802D01*
X009903Y004009D01*
X009916Y003995D01*
X010089Y003923D01*
X010276Y003923D01*
X010449Y003995D01*
X010563Y004109D01*
X010563Y004084D01*
X010561Y004083D02*
X010537Y004083D01*
X010463Y003984D02*
X010423Y003984D01*
X010364Y003886D02*
X009903Y003886D01*
X009903Y003984D02*
X009942Y003984D01*
X009683Y003893D02*
X009183Y003393D01*
X009653Y003393D02*
X009713Y003393D01*
X009715Y003492D02*
X009651Y003492D01*
X009691Y003590D02*
X009756Y003590D01*
X009789Y003689D02*
X009814Y003689D01*
X009888Y003787D02*
X009912Y003787D01*
X008942Y003984D02*
X008903Y003984D01*
X008463Y003984D02*
X008322Y003844D01*
X008276Y003863D01*
X008089Y003863D01*
X007916Y003792D01*
X007784Y003660D01*
X007713Y003487D01*
X007713Y003343D01*
X007653Y003343D01*
X007653Y003487D01*
X007634Y003533D01*
X007774Y003673D01*
X007903Y003802D01*
X007903Y004009D01*
X007916Y003995D01*
X008089Y003923D01*
X008276Y003923D01*
X008449Y003995D01*
X008463Y004009D01*
X008463Y003984D01*
X008423Y003984D01*
X008364Y003886D02*
X007903Y003886D01*
X007903Y003984D02*
X007942Y003984D01*
X007683Y003893D02*
X007683Y004793D01*
X008583Y005693D01*
X011483Y005693D01*
X012183Y006393D01*
X014783Y006393D01*
X016483Y008093D01*
X016483Y011893D01*
X016083Y012293D01*
X016083Y012893D01*
X016383Y012693D02*
X016383Y013193D01*
X016667Y013313D02*
X016698Y013313D01*
X016683Y013277D01*
X016667Y013313D01*
X016098Y013313D02*
X016067Y013313D01*
X016083Y013277D01*
X016098Y013313D01*
X015783Y013193D02*
X015783Y012293D01*
X016283Y011793D01*
X016283Y008193D01*
X014683Y006593D01*
X012083Y006593D01*
X011383Y005893D01*
X008483Y005893D01*
X007583Y004993D01*
X006983Y004993D01*
X006683Y004693D01*
X006683Y003893D01*
X006183Y003393D01*
X006653Y003393D02*
X006713Y003393D01*
X006713Y003343D02*
X006653Y003343D01*
X006653Y003487D01*
X006634Y003533D01*
X006774Y003673D01*
X006903Y003802D01*
X006903Y004009D01*
X006916Y003995D01*
X007089Y003923D01*
X007276Y003923D01*
X007449Y003995D01*
X007463Y004009D01*
X007463Y003984D01*
X007423Y003984D01*
X007463Y003984D02*
X007322Y003844D01*
X007276Y003863D01*
X007089Y003863D01*
X006916Y003792D01*
X006784Y003660D01*
X006713Y003487D01*
X006713Y003343D01*
X006715Y003492D02*
X006651Y003492D01*
X006691Y003590D02*
X006756Y003590D01*
X006789Y003689D02*
X006814Y003689D01*
X006888Y003787D02*
X006912Y003787D01*
X006903Y003886D02*
X007364Y003886D01*
X007683Y003893D02*
X007183Y003393D01*
X007653Y003393D02*
X007713Y003393D01*
X007715Y003492D02*
X007651Y003492D01*
X007691Y003590D02*
X007756Y003590D01*
X007789Y003689D02*
X007814Y003689D01*
X007888Y003787D02*
X007912Y003787D01*
X006942Y003984D02*
X006903Y003984D01*
X006463Y003984D02*
X006322Y003844D01*
X006276Y003863D01*
X006089Y003863D01*
X005916Y003792D01*
X005784Y003660D01*
X005713Y003487D01*
X005713Y003343D01*
X005653Y003343D01*
X005653Y003487D01*
X005634Y003533D01*
X005774Y003673D01*
X005903Y003802D01*
X005903Y004009D01*
X005916Y003995D01*
X006089Y003923D01*
X006276Y003923D01*
X006449Y003995D01*
X006463Y004009D01*
X006463Y003984D01*
X006423Y003984D01*
X006364Y003886D02*
X005903Y003886D01*
X005903Y003984D02*
X005942Y003984D01*
X005683Y003893D02*
X005683Y004693D01*
X006183Y005193D01*
X007483Y005193D01*
X008383Y006093D01*
X011283Y006093D01*
X011983Y006793D01*
X014583Y006793D01*
X016083Y008293D01*
X016083Y011693D01*
X015483Y012293D01*
X015483Y012893D01*
X014783Y012893D02*
X014783Y012393D01*
X015683Y011493D01*
X015683Y008493D01*
X014383Y007193D01*
X011783Y007193D01*
X011083Y006493D01*
X008183Y006493D01*
X007283Y005593D01*
X005983Y005593D01*
X005583Y005193D01*
X004083Y005193D01*
X003683Y004793D01*
X003683Y003893D01*
X003183Y003393D01*
X003653Y003393D02*
X003713Y003393D01*
X003713Y003343D02*
X003653Y003343D01*
X003653Y003487D01*
X003634Y003533D01*
X003774Y003673D01*
X003903Y003802D01*
X003903Y004009D01*
X003916Y003995D01*
X004089Y003923D01*
X004276Y003923D01*
X004449Y003995D01*
X004463Y004009D01*
X004463Y003984D01*
X004423Y003984D01*
X004463Y003984D02*
X004322Y003844D01*
X004276Y003863D01*
X004089Y003863D01*
X003916Y003792D01*
X003784Y003660D01*
X003713Y003487D01*
X003713Y003343D01*
X003715Y003492D02*
X003651Y003492D01*
X003691Y003590D02*
X003756Y003590D01*
X003789Y003689D02*
X003814Y003689D01*
X003888Y003787D02*
X003912Y003787D01*
X003903Y003886D02*
X004364Y003886D01*
X004683Y003893D02*
X004683Y004693D01*
X004983Y004993D01*
X005683Y004993D01*
X006083Y005393D01*
X007383Y005393D01*
X008283Y006293D01*
X011183Y006293D01*
X011883Y006993D01*
X014483Y006993D01*
X015883Y008393D01*
X015883Y011593D01*
X015083Y012393D01*
X015083Y013193D01*
X015392Y013190D02*
X015392Y013255D01*
X015367Y013313D01*
X015498Y013313D01*
X015474Y013255D01*
X015474Y013202D01*
X015421Y013202D01*
X015392Y013190D01*
X015392Y013243D02*
X015474Y013243D01*
X014798Y013313D02*
X014767Y013313D01*
X014783Y013277D01*
X014798Y013313D01*
X014483Y013193D02*
X014483Y012393D01*
X015483Y011393D01*
X015483Y008593D01*
X014283Y007393D01*
X011683Y007393D01*
X010983Y006693D01*
X008083Y006693D01*
X007183Y005793D01*
X005883Y005793D01*
X005483Y005393D01*
X003983Y005393D01*
X003683Y005093D01*
X002983Y005093D01*
X002683Y004793D01*
X002683Y003893D01*
X002183Y003393D01*
X002653Y003393D02*
X002713Y003393D01*
X002713Y003343D02*
X002653Y003343D01*
X002653Y003487D01*
X002634Y003533D01*
X002774Y003673D01*
X002903Y003802D01*
X002903Y004009D01*
X002916Y003995D01*
X003089Y003923D01*
X003276Y003923D01*
X003449Y003995D01*
X003463Y004009D01*
X003463Y003984D01*
X003423Y003984D01*
X003463Y003984D02*
X003322Y003844D01*
X003276Y003863D01*
X003089Y003863D01*
X002916Y003792D01*
X002784Y003660D01*
X002713Y003487D01*
X002713Y003343D01*
X002715Y003492D02*
X002651Y003492D01*
X002691Y003590D02*
X002756Y003590D01*
X002789Y003689D02*
X002814Y003689D01*
X002888Y003787D02*
X002912Y003787D01*
X002903Y003886D02*
X003364Y003886D01*
X002942Y003984D02*
X002903Y003984D01*
X002463Y003984D02*
X002322Y003844D01*
X002276Y003863D01*
X002089Y003863D01*
X001916Y003792D01*
X001784Y003660D01*
X001713Y003487D01*
X001713Y003343D01*
X001653Y003343D01*
X001653Y003487D01*
X001581Y003660D01*
X001449Y003792D01*
X001276Y003863D01*
X001089Y003863D01*
X000916Y003792D01*
X000784Y003660D01*
X000713Y003487D01*
X000713Y003343D01*
X000633Y003343D01*
X000633Y008750D01*
X000647Y009108D01*
X000759Y009815D01*
X000980Y010496D01*
X001305Y011134D01*
X001726Y011714D01*
X002233Y012220D01*
X002812Y012641D01*
X003450Y012966D01*
X004131Y013187D01*
X004838Y013299D01*
X005196Y013313D01*
X014198Y013313D01*
X014174Y013255D01*
X014174Y013132D01*
X014221Y013018D01*
X014263Y012976D01*
X014263Y012302D01*
X014392Y012173D01*
X014794Y011771D01*
X012455Y011771D01*
X012433Y011768D01*
X012411Y011762D01*
X012391Y011753D01*
X012371Y011742D01*
X012354Y011729D01*
X012338Y011713D01*
X012324Y011695D01*
X012313Y011676D01*
X012305Y011655D01*
X012299Y011634D01*
X012296Y011612D01*
X012296Y010656D01*
X012299Y010634D01*
X012305Y010613D01*
X012313Y010592D01*
X012324Y010573D01*
X012338Y010555D01*
X012354Y010539D01*
X012371Y010526D01*
X012391Y010514D01*
X012411Y010506D01*
X012433Y010500D01*
X012455Y010497D01*
X015219Y010497D01*
X015241Y010500D01*
X015263Y010506D01*
X015263Y008684D01*
X014192Y007613D01*
X011592Y007613D01*
X011463Y007484D01*
X010892Y006913D01*
X007992Y006913D01*
X007863Y006784D01*
X007092Y006013D01*
X005792Y006013D01*
X005663Y005884D01*
X005392Y005613D01*
X003892Y005613D01*
X003763Y005484D01*
X003592Y005313D01*
X002892Y005313D01*
X002763Y005184D01*
X002463Y004884D01*
X002463Y004778D01*
X002449Y004792D01*
X002276Y004863D01*
X002089Y004863D01*
X001916Y004792D01*
X001784Y004660D01*
X001713Y004487D01*
X001713Y004300D01*
X001784Y004127D01*
X001916Y003995D01*
X002089Y003923D01*
X002276Y003923D01*
X002449Y003995D01*
X002463Y004009D01*
X002463Y003984D01*
X002423Y003984D01*
X002364Y003886D02*
X000633Y003886D01*
X000633Y003984D02*
X000942Y003984D01*
X000916Y003995D02*
X000784Y004127D01*
X000713Y004300D01*
X000713Y004487D01*
X000784Y004660D01*
X000916Y004792D01*
X001089Y004863D01*
X001276Y004863D01*
X001449Y004792D01*
X001581Y004660D01*
X001653Y004487D01*
X001653Y004300D01*
X001581Y004127D01*
X001449Y003995D01*
X001276Y003923D01*
X001089Y003923D01*
X000916Y003995D01*
X000829Y004083D02*
X000633Y004083D01*
X000633Y004181D02*
X000762Y004181D01*
X000721Y004280D02*
X000633Y004280D01*
X000633Y004378D02*
X000713Y004378D01*
X000713Y004477D02*
X000633Y004477D01*
X000633Y004575D02*
X000749Y004575D01*
X000799Y004674D02*
X000633Y004674D01*
X000633Y004772D02*
X000897Y004772D01*
X000633Y004871D02*
X002463Y004871D01*
X002548Y004969D02*
X000633Y004969D01*
X000633Y005068D02*
X002646Y005068D01*
X002745Y005166D02*
X000633Y005166D01*
X000633Y005265D02*
X002843Y005265D01*
X003642Y005363D02*
X000633Y005363D01*
X000633Y005462D02*
X003740Y005462D01*
X003839Y005560D02*
X000633Y005560D01*
X000633Y005659D02*
X005437Y005659D01*
X005536Y005757D02*
X000633Y005757D01*
X000633Y005856D02*
X005634Y005856D01*
X005733Y005954D02*
X000633Y005954D01*
X000633Y006053D02*
X007131Y006053D01*
X007230Y006151D02*
X000633Y006151D01*
X000633Y006250D02*
X007328Y006250D01*
X007427Y006348D02*
X000633Y006348D01*
X000633Y006447D02*
X007525Y006447D01*
X007624Y006545D02*
X000633Y006545D01*
X000633Y006644D02*
X007722Y006644D01*
X007821Y006742D02*
X000633Y006742D01*
X000633Y006841D02*
X007919Y006841D01*
X010918Y006939D02*
X000633Y006939D01*
X000633Y007038D02*
X011016Y007038D01*
X011115Y007136D02*
X000633Y007136D01*
X000633Y007235D02*
X011213Y007235D01*
X011312Y007333D02*
X000633Y007333D01*
X000633Y007432D02*
X011410Y007432D01*
X011509Y007530D02*
X000633Y007530D01*
X000633Y007629D02*
X014207Y007629D01*
X014306Y007727D02*
X000633Y007727D01*
X000633Y007826D02*
X014404Y007826D01*
X014503Y007924D02*
X000633Y007924D01*
X000633Y008023D02*
X014601Y008023D01*
X014700Y008121D02*
X000633Y008121D01*
X000633Y008220D02*
X014798Y008220D01*
X014897Y008318D02*
X000633Y008318D01*
X000633Y008417D02*
X014995Y008417D01*
X015094Y008515D02*
X000633Y008515D01*
X000633Y008614D02*
X015192Y008614D01*
X015263Y008712D02*
X000633Y008712D01*
X000635Y008811D02*
X015263Y008811D01*
X015263Y008909D02*
X000639Y008909D01*
X000643Y009008D02*
X015263Y009008D01*
X015263Y009106D02*
X000647Y009106D01*
X000662Y009205D02*
X015263Y009205D01*
X015263Y009303D02*
X000678Y009303D01*
X000693Y009402D02*
X015263Y009402D01*
X015263Y009500D02*
X000709Y009500D01*
X000725Y009599D02*
X015263Y009599D01*
X015263Y009697D02*
X000740Y009697D01*
X000756Y009796D02*
X015263Y009796D01*
X015263Y009894D02*
X000785Y009894D01*
X000817Y009993D02*
X015263Y009993D01*
X015263Y010091D02*
X000849Y010091D01*
X000881Y010190D02*
X015263Y010190D01*
X015263Y010288D02*
X000913Y010288D01*
X000945Y010387D02*
X015263Y010387D01*
X015263Y010485D02*
X000977Y010485D01*
X001025Y010584D02*
X012318Y010584D01*
X012296Y010682D02*
X001075Y010682D01*
X001125Y010781D02*
X012296Y010781D01*
X012296Y010879D02*
X001175Y010879D01*
X001226Y010978D02*
X012296Y010978D01*
X012296Y011076D02*
X001276Y011076D01*
X001335Y011175D02*
X012296Y011175D01*
X012296Y011273D02*
X001406Y011273D01*
X001478Y011372D02*
X012296Y011372D01*
X012296Y011470D02*
X001549Y011470D01*
X001621Y011569D02*
X012296Y011569D01*
X012310Y011667D02*
X001693Y011667D01*
X001778Y011766D02*
X012426Y011766D01*
X014263Y012357D02*
X002421Y012357D01*
X002556Y012455D02*
X014263Y012455D01*
X014263Y012554D02*
X002692Y012554D01*
X002834Y012652D02*
X014263Y012652D01*
X014263Y012751D02*
X003028Y012751D01*
X003221Y012849D02*
X014263Y012849D01*
X014263Y012948D02*
X003414Y012948D01*
X003697Y013046D02*
X014209Y013046D01*
X014174Y013145D02*
X004000Y013145D01*
X004485Y013243D02*
X014174Y013243D01*
X016303Y012462D02*
X016392Y012373D01*
X016463Y012373D01*
X016463Y012224D01*
X016303Y012384D01*
X016303Y012462D01*
X016303Y012455D02*
X016310Y012455D01*
X016330Y012357D02*
X016463Y012357D01*
X016463Y012258D02*
X016429Y012258D01*
X014701Y011864D02*
X001877Y011864D01*
X001975Y011963D02*
X014602Y011963D01*
X014504Y012061D02*
X002074Y012061D01*
X002172Y012160D02*
X014405Y012160D01*
X014307Y012258D02*
X002285Y012258D01*
X017867Y013313D02*
X017898Y013313D01*
X017883Y013277D01*
X017867Y013313D01*
X019067Y013313D02*
X019098Y013313D01*
X019083Y013277D01*
X019067Y013313D01*
X019383Y013193D02*
X019383Y012593D01*
X023103Y011864D02*
X023463Y011864D01*
X023463Y011766D02*
X023103Y011766D01*
X023103Y011667D02*
X023463Y011667D01*
X023463Y011569D02*
X023103Y011569D01*
X023103Y011470D02*
X023463Y011470D01*
X023463Y011372D02*
X023103Y011372D01*
X023103Y011273D02*
X023463Y011273D01*
X023463Y011175D02*
X023103Y011175D01*
X023103Y011076D02*
X023463Y011076D01*
X023463Y010978D02*
X023103Y010978D01*
X023103Y010879D02*
X023463Y010879D01*
X023484Y010781D02*
X023103Y010781D01*
X023103Y010682D02*
X023583Y010682D01*
X023681Y010584D02*
X023103Y010584D01*
X023103Y010485D02*
X023780Y010485D01*
X023463Y011963D02*
X023163Y011963D01*
X023262Y012061D02*
X023463Y012061D01*
X023463Y012160D02*
X023360Y012160D01*
X023459Y012258D02*
X023463Y012258D01*
X009752Y005473D02*
X008674Y005473D01*
X008046Y004845D01*
X008089Y004863D01*
X008276Y004863D01*
X008449Y004792D01*
X008509Y004731D01*
X008863Y005084D01*
X008992Y005213D01*
X009492Y005213D01*
X009752Y005473D01*
X009740Y005462D02*
X008662Y005462D01*
X008564Y005363D02*
X009642Y005363D01*
X009543Y005265D02*
X008465Y005265D01*
X008367Y005166D02*
X008945Y005166D01*
X008846Y005068D02*
X008268Y005068D01*
X008170Y004969D02*
X008748Y004969D01*
X008649Y004871D02*
X008071Y004871D01*
X008468Y004772D02*
X008551Y004772D01*
X010046Y004845D02*
X010274Y005073D01*
X010652Y005073D01*
X010563Y004984D01*
X010563Y004678D01*
X010449Y004792D01*
X010276Y004863D01*
X010089Y004863D01*
X010046Y004845D01*
X010071Y004871D02*
X010563Y004871D01*
X010563Y004969D02*
X010170Y004969D01*
X010268Y005068D02*
X010646Y005068D01*
X011046Y004845D02*
X011074Y004873D01*
X011552Y004873D01*
X011463Y004784D01*
X011463Y004778D01*
X011449Y004792D01*
X011276Y004863D01*
X011089Y004863D01*
X011046Y004845D01*
X011071Y004871D02*
X011549Y004871D01*
X012164Y004863D02*
X012674Y005373D01*
X013052Y005373D01*
X012592Y004913D01*
X012463Y004784D01*
X012463Y004778D01*
X012449Y004792D01*
X012276Y004863D01*
X012164Y004863D01*
X012171Y004871D02*
X012549Y004871D01*
X012648Y004969D02*
X012270Y004969D01*
X012368Y005068D02*
X012746Y005068D01*
X012845Y005166D02*
X012467Y005166D01*
X012565Y005265D02*
X012943Y005265D01*
X013042Y005363D02*
X012664Y005363D01*
X013164Y004863D02*
X013474Y005173D01*
X013752Y005173D01*
X013463Y004884D01*
X013463Y004778D01*
X013449Y004792D01*
X013276Y004863D01*
X013164Y004863D01*
X013171Y004871D02*
X013463Y004871D01*
X013548Y004969D02*
X013270Y004969D01*
X013368Y005068D02*
X013646Y005068D01*
X013745Y005166D02*
X013467Y005166D01*
X014046Y004845D02*
X014174Y004973D01*
X014652Y004973D01*
X014592Y004913D01*
X014463Y004784D01*
X014463Y004778D01*
X014449Y004792D01*
X014276Y004863D01*
X014089Y004863D01*
X014046Y004845D01*
X014071Y004871D02*
X014549Y004871D01*
X014648Y004969D02*
X014170Y004969D01*
X015903Y004802D02*
X016174Y005073D01*
X016552Y005073D01*
X016463Y004984D01*
X016463Y004778D01*
X016449Y004792D01*
X016276Y004863D01*
X016089Y004863D01*
X015916Y004792D01*
X015903Y004778D01*
X015903Y004802D01*
X015971Y004871D02*
X016463Y004871D01*
X016463Y004969D02*
X016070Y004969D01*
X016168Y005068D02*
X016546Y005068D01*
X016903Y004802D02*
X016974Y004873D01*
X017552Y004873D01*
X017463Y004784D01*
X017463Y004778D01*
X017449Y004792D01*
X017276Y004863D01*
X017089Y004863D01*
X016916Y004792D01*
X016903Y004778D01*
X016903Y004802D01*
X016971Y004871D02*
X017549Y004871D01*
X014942Y003984D02*
X014903Y003984D01*
X013942Y003984D02*
X013903Y003984D01*
X012912Y003787D02*
X012903Y003787D01*
X010563Y004772D02*
X010468Y004772D01*
X006652Y004973D02*
X006463Y004784D01*
X006463Y004778D01*
X006449Y004792D01*
X006276Y004863D01*
X006164Y004863D01*
X006274Y004973D01*
X006652Y004973D01*
X006648Y004969D02*
X006270Y004969D01*
X006171Y004871D02*
X006549Y004871D01*
X004652Y004973D02*
X004463Y004784D01*
X004463Y004778D01*
X004449Y004792D01*
X004276Y004863D01*
X004089Y004863D01*
X004046Y004845D01*
X004174Y004973D01*
X004652Y004973D01*
X004648Y004969D02*
X004170Y004969D01*
X004071Y004871D02*
X004549Y004871D01*
X003463Y004871D02*
X003071Y004871D01*
X003074Y004873D02*
X003463Y004873D01*
X003463Y004778D01*
X003449Y004792D01*
X003276Y004863D01*
X003089Y004863D01*
X003046Y004845D01*
X003074Y004873D01*
X001897Y004772D02*
X001468Y004772D01*
X001567Y004674D02*
X001799Y004674D01*
X001749Y004575D02*
X001616Y004575D01*
X001653Y004477D02*
X001713Y004477D01*
X001713Y004378D02*
X001653Y004378D01*
X001644Y004280D02*
X001721Y004280D01*
X001762Y004181D02*
X001604Y004181D01*
X001537Y004083D02*
X001829Y004083D01*
X001942Y003984D02*
X001423Y003984D01*
X001453Y003787D02*
X001912Y003787D01*
X001814Y003689D02*
X001552Y003689D01*
X001610Y003590D02*
X001756Y003590D01*
X001715Y003492D02*
X001651Y003492D01*
X001653Y003393D02*
X001713Y003393D01*
X000756Y003590D02*
X000633Y003590D01*
X000633Y003492D02*
X000715Y003492D01*
X000713Y003393D02*
X000633Y003393D01*
X000633Y003689D02*
X000814Y003689D01*
X000912Y003787D02*
X000633Y003787D01*
X003903Y003984D02*
X003942Y003984D01*
X004183Y003393D02*
X004683Y003893D01*
X004903Y003886D02*
X005364Y003886D01*
X005322Y003844D02*
X005276Y003863D01*
X005089Y003863D01*
X004916Y003792D01*
X004784Y003660D01*
X004713Y003487D01*
X004713Y003343D01*
X004653Y003343D01*
X004653Y003487D01*
X004634Y003533D01*
X004774Y003673D01*
X004903Y003802D01*
X004903Y004009D01*
X004916Y003995D01*
X005089Y003923D01*
X005276Y003923D01*
X005449Y003995D01*
X005463Y004009D01*
X005463Y003984D01*
X005423Y003984D01*
X005463Y003984D02*
X005322Y003844D01*
X005683Y003893D02*
X005183Y003393D01*
X005653Y003393D02*
X005713Y003393D01*
X005715Y003492D02*
X005651Y003492D01*
X005691Y003590D02*
X005756Y003590D01*
X005789Y003689D02*
X005814Y003689D01*
X005888Y003787D02*
X005912Y003787D01*
X004942Y003984D02*
X004903Y003984D01*
X004888Y003787D02*
X004912Y003787D01*
X004814Y003689D02*
X004789Y003689D01*
X004756Y003590D02*
X004691Y003590D01*
X004715Y003492D02*
X004651Y003492D01*
X004653Y003393D02*
X004713Y003393D01*
X040453Y003787D02*
X040725Y003787D01*
X040725Y003689D02*
X040552Y003689D01*
X040610Y003590D02*
X040725Y003590D01*
X040725Y003492D02*
X040651Y003492D01*
X040653Y003393D02*
X040725Y003393D01*
D14*
X020983Y008993D03*
X021583Y012893D03*
X022183Y012893D03*
X022783Y012893D03*
X023383Y012893D03*
X023983Y012893D03*
X024583Y012893D03*
X025183Y012893D03*
X025783Y012893D03*
X026383Y012893D03*
X026683Y013193D03*
X026083Y013193D03*
X025483Y013193D03*
X024883Y013193D03*
X024283Y013193D03*
X023683Y013193D03*
X023083Y013193D03*
X022483Y013193D03*
X021883Y013193D03*
X019683Y012893D03*
X019083Y012893D03*
X018483Y012893D03*
X017883Y012893D03*
X017283Y012893D03*
X016683Y012893D03*
X016083Y012893D03*
X015483Y012893D03*
X014783Y012893D03*
X015083Y013193D03*
X015783Y013193D03*
X016383Y013193D03*
X016983Y013193D03*
X017583Y013193D03*
X018183Y013193D03*
X018783Y013193D03*
X019383Y013193D03*
X014483Y013193D03*
M02*
